<svg width="332" height="260" viewBox="0 0 332 260" fill="none" xmlns="http://www.w3.org/2000/svg">
<path fill-rule="evenodd" clip-rule="evenodd" d="M73.118 144.521C69.762 143.553 66.7371 141.825 64.345 139.98C58.6048 135.552 53.7922 128.64 52.2086 121.584C50.8756 115.645 49.9714 113.627 49.4428 112.817L49.4213 112.784C49.192 112.431 49.075 112.251 46.7286 110.854L46.7183 110.848L46.717 110.847L46.7159 110.846C46.3488 110.628 45.929 110.378 45.4841 110.107C33.3469 102.718 23.1883 86.647 17.4511 70.628C14.5101 62.416 12.5402 53.7164 12.0955 45.4269C11.6548 37.213 12.6854 28.85 16.3141 21.7705C24.179 6.42602 41.8483 4.917 55.9175 6.48829C70.7867 8.14893 86.6233 13.6772 97.221 18.016C100.727 19.4512 103.803 20.969 106.416 22.6524C115.278 18.5678 125.108 16.191 135.611 16.191C145.318 16.191 154.355 18.2216 162.531 21.7774C164.802 20.4459 167.395 19.206 170.301 18.016C180.899 13.6772 196.736 8.14893 211.605 6.48829C225.674 4.917 243.344 6.42602 251.208 21.7705C254.837 28.85 255.868 37.213 255.427 45.4269C254.982 53.7164 253.012 62.416 250.071 70.628C244.334 86.647 234.176 102.718 222.038 110.107C221.594 110.378 221.174 110.627 220.807 110.846L220.806 110.847L220.796 110.853L220.794 110.854C218.447 112.251 218.331 112.431 218.101 112.784L218.08 112.817C217.551 113.627 216.647 115.645 215.314 121.584C214.366 125.807 212.267 129.958 209.531 133.548C211.522 134.146 213.429 134.801 215.238 135.511C220.374 137.527 225.22 140.18 228.953 143.644C232.693 147.115 233.899 152.155 233.899 158.585V166.867H309.261C315.336 166.867 320.261 171.791 320.261 177.867V217.867C320.261 223.942 315.336 228.867 309.261 228.867H233.714C233.031 233.318 230.538 236.979 227.624 239.74C224.212 242.973 219.704 245.515 214.796 247.482C204.937 251.433 191.864 253.698 177.833 253.698C163.801 253.698 150.729 251.433 140.869 247.482C135.961 245.515 131.453 242.973 128.042 239.74C124.641 236.518 121.814 232.072 121.767 226.573L121.521 218.213C117.821 220.71 113.55 222.169 109.549 222.961C103.479 224.163 96.9329 224.065 91.203 222.961C89.2218 222.579 87.5777 221.706 86.2294 220.646L77.8292 222.948C73.6664 225.619 68.7796 227.206 63.5122 227.206C46.2935 227.206 34.5214 211.194 34.5214 194.374C34.5214 177.554 46.2935 161.541 63.5122 161.541C64.2694 161.541 65.0212 161.574 65.7663 161.639C67.6961 161.287 69.8056 160.925 72.0271 160.572C72.0484 155.029 72.3697 149.526 73.118 144.521Z" fill="white"/>
<path d="M184.21 133.09H85.4158L89.2945 207.36C89.2945 207.36 113.708 208.954 134.242 208.954C154.777 208.954 174.627 207.36 174.627 207.36L184.21 133.09Z" fill="#B9E1FF"/>
<path fill-rule="evenodd" clip-rule="evenodd" d="M84.2139 131.951H185.507L175.64 208.421L174.718 208.495L174.627 207.36C174.718 208.495 174.719 208.495 174.718 208.495L174.717 208.495L174.659 208.5C174.621 208.503 174.563 208.507 174.487 208.513C174.336 208.525 174.112 208.542 173.819 208.564C173.234 208.608 172.376 208.67 171.283 208.745C169.096 208.895 165.967 209.095 162.195 209.295C154.654 209.694 144.537 210.094 134.242 210.094C123.95 210.094 112.693 209.694 104.015 209.295C99.6754 209.095 95.9776 208.896 93.3646 208.746C92.058 208.671 91.0225 208.609 90.3134 208.565C89.9588 208.543 89.6858 208.526 89.5012 208.514L89.2247 208.497L89.2213 208.496L89.2204 208.496C89.2202 208.496 89.22 208.496 89.2945 207.36L89.2204 208.496L88.2081 208.43L84.2139 131.951ZM90.3808 206.287C90.4048 206.288 90.4291 206.29 90.4539 206.291C91.16 206.335 92.1923 206.397 93.4953 206.472C96.1014 206.621 99.7904 206.82 104.12 207.019C112.783 207.417 124 207.815 134.242 207.815C144.482 207.815 154.557 207.418 162.075 207.02C165.833 206.821 168.95 206.622 171.126 206.472C172.193 206.399 173.034 206.338 173.614 206.295L182.912 134.229H86.6176L90.3808 206.287Z" fill="#001F4D"/>
<ellipse cx="134.699" cy="167.035" rx="28.292" ry="21.1874" fill="white"/>
<path d="M103.669 166.352C91.9868 165.076 70.5092 168.706 61.2306 170.68L70.3571 216.7L107.776 206.448L103.669 166.352Z" fill="#B9E1FF"/>
<path fill-rule="evenodd" clip-rule="evenodd" d="M62.5689 171.564L71.2379 215.278L106.542 205.605L102.629 167.396C96.989 166.923 89.2502 167.486 81.6896 168.428C74.3393 169.343 67.2426 170.604 62.5689 171.564ZM81.4073 166.167C89.4076 165.171 97.8103 164.566 103.793 165.219L104.71 165.32L109.009 207.292L69.4763 218.123L59.8932 169.8L60.9929 169.566C65.6604 168.573 73.3818 167.166 81.4073 166.167Z" fill="#001F4D"/>
<mask id="mask0_27_17640" style="mask-type:alpha" maskUnits="userSpaceOnUse" x="37" y="164" width="53" height="61">
<path d="M63.5123 221.706C76.8632 221.706 87.0031 209.059 87.0031 194.374C87.0031 179.689 76.8632 167.041 63.5123 167.041C50.1613 167.041 40.0214 179.689 40.0214 194.374C40.0214 209.059 50.1613 221.706 63.5123 221.706Z" fill="#D3C8FF" stroke="#8E7FC9" stroke-width="5"/>
</mask>
<g mask="url(#mask0_27_17640)">
<path d="M84.5031 194.374C84.5031 208.088 75.1052 219.206 63.5123 219.206C51.9193 219.206 42.5214 208.088 42.5214 194.374C42.5214 180.659 51.9193 169.541 63.5123 169.541C75.1052 169.541 84.5031 180.659 84.5031 194.374Z" fill="#B9E1FF"/>
<path fill-rule="evenodd" clip-rule="evenodd" d="M79.916 209.869C76.5455 212.598 72.4681 214.194 68.0755 214.194C56.4826 214.194 47.0846 203.076 47.0846 189.362C47.0846 183.501 48.8011 178.114 51.6718 173.866C46.1468 178.339 42.5214 185.856 42.5214 194.374C42.5214 208.088 51.9193 219.206 63.5123 219.206C70.1508 219.206 76.0695 215.561 79.916 209.869Z" fill="#81B0E0"/>
<path fill-rule="evenodd" clip-rule="evenodd" d="M63.5123 216.928C73.4978 216.928 82.2215 207.208 82.2215 194.374C82.2215 181.54 73.4978 171.819 63.5123 171.819C53.5267 171.819 44.803 181.54 44.803 194.374C44.803 207.208 53.5267 216.928 63.5123 216.928ZM63.5123 219.206C75.1052 219.206 84.5031 208.088 84.5031 194.374C84.5031 180.659 75.1052 169.541 63.5123 169.541C51.9193 169.541 42.5214 180.659 42.5214 194.374C42.5214 208.088 51.9193 219.206 63.5123 219.206Z" fill="#001F4D"/>
</g>
<path d="M165.272 166.352C176.954 165.076 198.432 168.706 207.71 170.68L198.584 216.7L161.165 206.448L165.272 166.352Z" fill="#B9E1FF"/>
<path fill-rule="evenodd" clip-rule="evenodd" d="M206.372 171.564L197.703 215.278L162.399 205.605L166.312 167.396C171.952 166.923 179.691 167.486 187.251 168.428C194.602 169.343 201.698 170.604 206.372 171.564ZM187.534 166.167C179.533 165.171 171.131 164.566 165.148 165.219L164.231 165.32L159.932 207.292L199.465 218.123L209.048 169.8L207.948 169.566C203.281 168.573 195.559 167.166 187.534 166.167Z" fill="#001F4D"/>
<mask id="mask1_27_17640" style="mask-type:alpha" maskUnits="userSpaceOnUse" x="179" y="164" width="53" height="61">
<path d="M205.429 221.706C192.078 221.706 181.938 209.059 181.938 194.374C181.938 179.689 192.078 167.041 205.429 167.041C218.78 167.041 228.92 179.689 228.92 194.374C228.92 209.059 218.78 221.706 205.429 221.706Z" fill="#D3C8FF" stroke="#8E7FC9" stroke-width="5"/>
</mask>
<g mask="url(#mask1_27_17640)">
<path d="M184.438 194.374C184.438 208.088 193.836 219.206 205.429 219.206C217.022 219.206 226.42 208.088 226.42 194.374C226.42 180.659 217.022 169.541 205.429 169.541C193.836 169.541 184.438 180.659 184.438 194.374Z" fill="#B9E1FF"/>
<path fill-rule="evenodd" clip-rule="evenodd" d="M189.025 209.869C192.395 212.598 196.473 214.194 200.865 214.194C212.458 214.194 221.856 203.076 221.856 189.362C221.856 183.501 220.14 178.114 217.269 173.866C222.794 178.339 226.42 185.856 226.42 194.374C226.42 208.088 217.022 219.206 205.429 219.206C198.79 219.206 192.871 215.561 189.025 209.869Z" fill="#81B0E0"/>
<path fill-rule="evenodd" clip-rule="evenodd" d="M205.429 216.928C195.443 216.928 186.719 207.208 186.719 194.374C186.719 181.54 195.443 171.819 205.429 171.819C215.414 171.819 224.138 181.54 224.138 194.374C224.138 207.208 215.414 216.928 205.429 216.928ZM205.429 219.206C193.836 219.206 184.438 208.088 184.438 194.374C184.438 180.659 193.836 169.541 205.429 169.541C217.022 169.541 226.42 180.659 226.42 194.374C226.42 208.088 217.022 219.206 205.429 219.206Z" fill="#001F4D"/>
</g>
<mask id="mask2_27_17640" style="mask-type:alpha" maskUnits="userSpaceOnUse" x="80" y="133" width="43" height="83">
<path d="M92.7167 215.106C82.3124 213.101 74.6915 149.949 84.7306 133.545L110.97 143.57C110.97 143.57 126.029 198.702 121.465 206.904C116.902 215.106 103.121 217.11 92.7167 215.106Z" fill="#D3C8FF"/>
</mask>
<g mask="url(#mask2_27_17640)">
<path d="M92.7167 215.106C82.3124 213.101 74.6915 149.949 84.7306 133.545L111.654 154.049C111.654 154.049 126.029 198.702 121.465 206.904C116.902 215.106 103.121 217.11 92.7167 215.106Z" fill="#B9E1FF"/>
<path fill-rule="evenodd" clip-rule="evenodd" d="M84.7306 133.545C74.6915 149.949 82.3124 213.101 92.7167 215.106C96.2075 215.778 100.078 215.999 103.853 215.687C102.383 215.567 100.943 215.372 99.5616 215.106C89.8493 213.234 82.5625 158.08 89.8021 137.408L84.7306 133.545Z" fill="#81B0E0"/>
<ellipse cx="3.65002" cy="5.46857" rx="3.65002" ry="5.46857" transform="matrix(0.946681 -0.322171 0.323033 0.946388 98.9031 209.283)" fill="white"/>
<ellipse cx="3.65002" cy="5.46857" rx="3.65002" ry="5.46857" transform="matrix(0.946681 -0.322171 0.323033 0.946388 105.748 207.005)" fill="#B9E1FF"/>
<ellipse cx="3.65002" cy="5.46857" rx="3.65002" ry="5.46857" transform="matrix(0.946681 -0.322171 0.323033 0.946388 112.137 204.727)" fill="#B9E1FF"/>
</g>
<path fill-rule="evenodd" clip-rule="evenodd" d="M85.3255 132.573C85.8631 132.901 86.0326 133.603 85.7041 134.139C83.35 137.986 81.9519 144.764 81.4185 153.001C80.8889 161.181 81.2216 170.608 82.1916 179.603C83.1621 188.602 84.7653 197.118 86.7567 203.483C87.7541 206.671 88.8334 209.269 89.9501 211.108C91.1045 213.009 92.1383 213.834 92.9329 213.987C97.9917 214.962 103.872 214.959 109.015 213.725C114.181 212.485 118.407 210.055 120.468 206.351C120.897 205.579 121.17 204.219 121.213 202.253C121.255 200.328 121.075 197.975 120.726 195.334C120.029 190.057 118.671 183.754 117.164 177.675C115.657 171.602 114.008 165.782 112.735 161.477C112.098 159.326 111.556 157.554 111.173 156.321C110.982 155.705 110.83 155.223 110.727 154.896C110.675 154.733 110.635 154.608 110.608 154.524L110.568 154.398C110.568 154.398 110.568 154.398 111.654 154.049C112.74 153.701 112.74 153.701 112.74 153.701L112.741 153.703L112.751 153.734L112.782 153.832C112.81 153.917 112.85 154.044 112.902 154.21C113.007 154.54 113.16 155.026 113.353 155.647C113.738 156.888 114.283 158.669 114.923 160.832C116.202 165.156 117.861 171.011 119.378 177.127C120.894 183.237 122.274 189.635 122.988 195.036C123.345 197.735 123.54 200.216 123.494 202.303C123.45 204.349 123.174 206.179 122.462 207.457C119.96 211.954 115.013 214.628 109.548 215.94C104.058 217.257 97.8461 217.254 92.5006 216.224C90.694 215.876 89.2137 214.289 87.9991 212.289C86.7468 210.226 85.6022 207.433 84.5789 204.162C82.5289 197.61 80.9035 188.937 79.9231 179.847C78.9423 170.752 78.6018 161.191 79.1417 152.854C79.6778 144.574 81.0917 137.307 83.7572 132.951C84.0857 132.415 84.7879 132.245 85.3255 132.573ZM111.305 152.965C111.905 152.772 112.547 153.102 112.74 153.701L111.654 154.049L110.568 154.398C110.375 153.799 110.705 153.157 111.305 152.965Z" fill="#001F4D"/>
<mask id="mask3_27_17640" style="mask-type:alpha" maskUnits="userSpaceOnUse" x="146" y="133" width="43" height="83">
<path d="M176.293 215.106C186.697 213.101 194.318 149.949 184.279 133.545L158.04 143.57C158.04 143.57 142.981 198.702 147.545 206.904C152.108 215.106 165.889 217.11 176.293 215.106Z" fill="#D3C8FF"/>
</mask>
<g mask="url(#mask3_27_17640)">
<path d="M176.293 215.106C186.697 213.101 194.318 149.949 184.279 133.545L157.356 154.049C157.356 154.049 142.981 198.702 147.545 206.904C152.108 215.106 165.889 217.11 176.293 215.106Z" fill="#B9E1FF"/>
<path fill-rule="evenodd" clip-rule="evenodd" d="M184.279 133.545C194.318 149.949 186.697 213.101 176.293 215.106C172.802 215.778 168.932 215.999 165.156 215.687C166.627 215.567 168.067 215.372 169.448 215.106C179.16 213.234 186.447 158.08 179.208 137.408L184.279 133.545Z" fill="#81B0E0"/>
<ellipse cx="3.65002" cy="5.46857" rx="3.65002" ry="5.46857" transform="matrix(-0.946681 -0.322171 -0.323033 0.946388 170.107 209.283)" fill="white"/>
<ellipse cx="3.65002" cy="5.46857" rx="3.65002" ry="5.46857" transform="matrix(-0.946681 -0.322171 -0.323033 0.946388 163.262 207.005)" fill="#B9E1FF"/>
<ellipse cx="3.65002" cy="5.46857" rx="3.65002" ry="5.46857" transform="matrix(-0.946681 -0.322171 -0.323033 0.946388 156.873 204.727)" fill="#B9E1FF"/>
</g>
<path fill-rule="evenodd" clip-rule="evenodd" d="M183.684 132.573C183.147 132.901 182.977 133.603 183.306 134.139C185.66 137.986 187.058 144.764 187.591 153.001C188.121 161.181 187.788 170.608 186.818 179.603C185.848 188.602 184.244 197.118 182.253 203.483C181.256 206.671 180.176 209.269 179.06 211.108C177.905 213.009 176.871 213.834 176.077 213.987C171.018 214.962 165.137 214.959 159.995 213.725C154.828 212.485 150.603 210.055 148.542 206.351C148.113 205.579 147.839 204.219 147.797 202.253C147.755 200.328 147.934 197.975 148.283 195.334C148.981 190.057 150.339 183.754 151.846 177.675C153.352 171.602 155.002 165.782 156.275 161.477C156.912 159.326 157.454 157.554 157.837 156.321C158.028 155.705 158.18 155.223 158.283 154.896C158.335 154.733 158.375 154.608 158.401 154.524L158.442 154.398C158.442 154.398 158.442 154.398 157.356 154.049C156.27 153.701 156.269 153.701 156.269 153.701L156.269 153.703L156.259 153.734L156.228 153.832C156.2 153.917 156.16 154.044 156.108 154.21C156.003 154.54 155.85 155.026 155.657 155.647C155.272 156.888 154.727 158.669 154.087 160.832C152.808 165.156 151.149 171.011 149.632 177.127C148.116 183.237 146.736 189.635 146.021 195.036C145.665 197.735 145.47 200.216 145.516 202.303C145.56 204.349 145.836 206.179 146.547 207.457C149.05 211.954 153.996 214.628 159.462 215.94C164.952 217.257 171.164 217.254 176.509 216.224C178.316 215.876 179.796 214.289 181.011 212.289C182.263 210.226 183.408 207.433 184.431 204.162C186.481 197.61 188.106 188.937 189.087 179.847C190.068 170.752 190.408 161.191 189.868 152.854C189.332 144.574 187.918 137.307 185.253 132.951C184.924 132.415 184.222 132.245 183.684 132.573ZM157.705 152.965C157.105 152.772 156.462 153.102 156.27 153.701L157.356 154.049L158.442 154.398C158.634 153.799 158.305 153.157 157.705 152.965Z" fill="#001F4D"/>
<path d="M49.644 103.273C29.8904 91.2486 12.3711 47.0021 23.4334 25.4196C34.0894 4.62968 73.4484 16.9277 94.19 25.4196C114.631 33.7882 108.341 40.9731 105.721 53.1408C103.1 65.3085 96.249 111.435 89.8489 127.52C81.8487 147.627 62.8594 132.508 60.0145 119.832C57.1083 106.883 55.1426 106.621 49.644 103.273Z" fill="#B9E1FF"/>
<path fill-rule="evenodd" clip-rule="evenodd" d="M55.1899 13.0095C69.1538 14.569 84.3253 19.8262 94.737 24.0888C105.038 28.3061 109.252 32.4696 110.029 37.6424C110.401 40.1214 109.944 42.6552 109.296 45.2063C109.042 46.208 108.764 47.1937 108.482 48.1955C108.016 49.852 107.537 51.5527 107.13 53.443C106.434 56.6751 105.442 62.2907 104.236 69.121C103.177 75.1172 101.953 82.0495 100.619 89.1272C97.7852 104.153 94.4499 119.854 91.1885 128.051C89.0982 133.305 86.1879 136.506 82.761 137.914C79.3327 139.323 75.6869 138.814 72.3874 137.273C69.0938 135.734 66.0366 133.125 63.6242 130.105C61.2123 127.086 59.3763 123.57 58.608 120.147C57.1555 113.675 55.986 110.639 54.6383 108.802C53.5117 107.266 52.2419 106.507 50.1194 105.239C49.7394 105.012 49.3321 104.768 48.8934 104.501C38.6094 98.2411 29.1402 83.8128 23.6255 68.4147C20.855 60.6792 19.0491 52.6111 18.6448 45.0753C18.2412 37.5531 19.2296 30.4626 22.1502 24.7646C27.9347 13.479 41.3694 11.466 55.1899 13.0095ZM54.8693 15.8684C41.161 14.3374 29.5881 16.5702 24.7166 26.0746C22.1061 31.1678 21.136 37.7016 21.5233 44.9215C21.9099 52.1277 23.6442 59.9195 26.34 67.4465C31.7577 82.5736 40.9249 96.2809 50.3945 102.045C50.7787 102.279 51.1541 102.502 51.5206 102.72C53.6434 103.979 55.4671 105.061 56.9645 107.103C58.7008 109.47 59.9673 113.041 61.4209 119.518C62.0751 122.432 63.6796 125.56 65.8783 128.312C68.0766 131.064 70.8001 133.355 73.6095 134.667C76.413 135.977 79.1924 136.27 81.6634 135.254C84.136 134.238 86.5994 131.789 88.5093 126.989C91.6479 119.101 94.9383 103.696 97.7856 88.5953C99.0998 81.6259 100.319 74.7244 101.379 68.7215C102.599 61.8166 103.609 56.1008 104.312 52.8385C104.731 50.8886 105.263 48.9936 105.75 47.2603C106.024 46.2822 106.285 45.3555 106.502 44.4996C107.132 42.0198 107.461 39.9529 107.178 38.0687C106.644 34.5149 103.783 30.9017 93.6429 26.7503C83.313 22.5211 68.4343 17.3833 54.8693 15.8684Z" fill="#001F4D"/>
<path d="M41.2535 35.8804C55.8419 22.487 94.3407 40.6516 101.79 47.7163C102.743 59.8868 86.8972 104.688 83.0356 114.377L62.7425 94.4611C54.0947 88.4461 26.6652 49.2738 41.2535 35.8804Z" fill="#81B0E0"/>
<path d="M217.879 103.273C237.632 91.2486 255.151 47.0021 244.089 25.4196C233.433 4.62968 194.074 16.9277 173.332 25.4196C152.892 33.7882 159.181 40.9731 161.802 53.1408C164.422 65.3085 171.273 111.435 177.674 127.52C185.674 147.627 204.663 132.508 207.508 119.832C210.414 106.883 212.38 106.621 217.879 103.273Z" fill="#B9E1FF"/>
<path fill-rule="evenodd" clip-rule="evenodd" d="M212.333 13.0095C198.369 14.569 183.197 19.8262 172.785 24.0888C162.485 28.3061 158.27 32.4696 157.494 37.6424C157.121 40.1214 157.578 42.6552 158.226 45.2063C158.481 46.208 158.758 47.1937 159.04 48.1955C159.507 49.852 159.985 51.5527 160.393 53.443C161.089 56.6751 162.08 62.2907 163.286 69.121C164.345 75.1172 165.569 82.0495 166.904 89.1272C169.737 104.153 173.073 119.854 176.334 128.051C178.424 133.305 181.335 136.506 184.761 137.914C188.19 139.323 191.836 138.814 195.135 137.273C198.429 135.734 201.486 133.125 203.898 130.105C206.31 127.086 208.146 123.57 208.914 120.147C210.367 113.675 211.536 110.639 212.884 108.802C214.011 107.266 215.281 106.507 217.403 105.239C217.783 105.012 218.19 104.768 218.629 104.501C228.913 98.2411 238.382 83.8128 243.897 68.4147C246.667 60.6792 248.473 52.6111 248.878 45.0753C249.281 37.5531 248.293 30.4626 245.372 24.7646C239.588 13.479 226.153 11.466 212.333 13.0095ZM212.653 15.8684C226.361 14.3374 237.934 16.5702 242.806 26.0746C245.416 31.1678 246.386 37.7016 245.999 44.9215C245.613 52.1277 243.878 59.9195 241.182 67.4465C235.765 82.5736 226.598 96.2809 217.128 102.045C216.744 102.279 216.368 102.502 216.002 102.72C213.879 103.979 212.055 105.061 210.558 107.103C208.822 109.47 207.555 113.041 206.102 119.518C205.447 122.432 203.843 125.56 201.644 128.312C199.446 131.064 196.722 133.355 193.913 134.667C191.109 135.977 188.33 136.27 185.859 135.254C183.386 134.238 180.923 131.789 179.013 126.989C175.875 119.101 172.584 103.696 169.737 88.5953C168.423 81.6259 167.203 74.7244 166.143 68.7215C164.923 61.8166 163.914 56.1008 163.211 52.8385C162.791 50.8886 162.259 48.9936 161.773 47.2603C161.498 46.2822 161.238 45.3555 161.021 44.4996C160.391 42.0198 160.062 39.9529 160.345 38.0687C160.878 34.5149 163.74 30.9017 173.88 26.7503C184.209 22.5211 199.088 17.3833 212.653 15.8684Z" fill="#001F4D"/>
<path d="M226.269 35.8804C211.681 22.487 173.182 40.6516 165.733 47.7163C164.779 59.8868 180.625 104.688 184.487 114.377L204.78 94.4611C213.428 88.4461 240.857 49.2738 226.269 35.8804Z" fill="#81B0E0"/>
<path d="M202.006 96.1827C202.006 129.777 183.297 145.848 135.611 145.848C87.9255 145.848 66.7065 129.777 66.7065 96.1827C66.7065 62.5881 95.9112 24.1911 135.611 24.1911C175.311 24.1911 202.006 62.5881 202.006 96.1827Z" fill="#B9E1FF"/>
<path fill-rule="evenodd" clip-rule="evenodd" d="M201.867 91.9406C200.079 122.219 180.931 136.735 135.611 136.735C90.2729 136.735 68.8597 122.208 66.8614 91.9037C66.7586 93.3364 66.7065 94.7638 66.7065 96.1827C66.7065 129.777 87.9255 145.848 135.611 145.848C183.297 145.848 202.006 129.777 202.006 96.1827C202.006 94.776 201.959 93.361 201.867 91.9406Z" fill="#81B0E0"/>
<path fill-rule="evenodd" clip-rule="evenodd" d="M185.295 131.811C195.188 124.17 199.725 112.549 199.725 96.1827C199.725 79.9496 193.259 62.4655 181.951 49.0563C170.666 35.6737 154.67 26.4693 135.611 26.4693C116.536 26.4693 99.897 35.6902 87.9779 49.1011C76.0403 62.5328 68.9881 80.0062 68.9881 96.1827C68.9881 112.458 74.0933 124.094 84.6226 131.774C95.3055 139.566 111.943 143.57 135.611 143.57C159.289 143.57 175.261 139.562 185.295 131.811ZM135.611 145.848C183.297 145.848 202.006 129.777 202.006 96.1827C202.006 62.5881 175.311 24.1911 135.611 24.1911C95.9112 24.1911 66.7065 62.5881 66.7065 96.1827C66.7065 129.777 87.9255 145.848 135.611 145.848Z" fill="#001F4D"/>
<path fill-rule="evenodd" clip-rule="evenodd" d="M162.797 88.8631C165.856 89.1857 169.352 92.558 168.753 98.7692C168.677 99.56 169.257 100.263 170.05 100.339C170.842 100.415 171.546 99.8353 171.622 99.0446C172.334 91.6567 168.099 86.5296 163.1 86.0023C160.6 85.7387 158.075 86.679 156.219 88.9026C154.386 91.0986 153.285 94.4392 153.285 98.9069C153.285 99.7013 153.93 100.345 154.726 100.345C155.522 100.345 156.167 99.7013 156.167 98.9069C156.167 94.8752 157.163 92.2662 158.434 90.7437C159.682 89.2488 161.267 88.7017 162.797 88.8631Z" fill="#001F4D"/>
<ellipse cx="4.19298" cy="4.18433" rx="4.19298" ry="4.18433" transform="matrix(-1 0 0 1 178.574 103.353)" fill="#FF9693"/>
<path fill-rule="evenodd" clip-rule="evenodd" d="M106.036 88.8631C102.977 89.1857 99.4813 92.558 100.08 98.7692C100.156 99.56 99.5754 100.263 98.783 100.339C97.9906 100.415 97.2865 99.8353 97.2103 99.0446C96.4985 91.6567 100.734 86.5296 105.733 86.0023C108.232 85.7387 110.758 86.679 112.614 88.9026C114.447 91.0986 115.548 94.4392 115.548 98.9069C115.548 99.7013 114.903 100.345 114.107 100.345C113.311 100.345 112.665 99.7013 112.665 98.9069C112.665 94.8752 111.67 92.2662 110.399 90.7437C109.151 89.2488 107.566 88.7017 106.036 88.8631Z" fill="#001F4D"/>
<ellipse cx="94.452" cy="107.537" rx="4.19298" ry="4.18433" fill="#FF9693"/>
<path fill-rule="evenodd" clip-rule="evenodd" d="M118.141 122.362C117.252 120.386 116.729 118.255 116.727 116.063C116.727 115.057 117.148 114.074 117.882 113.363C118.617 112.652 119.633 112.244 120.672 112.244H148.285C149.323 112.244 150.338 112.652 151.073 113.363C151.808 114.074 152.229 115.057 152.229 116.063C152.22 119.352 151.067 122.496 149.209 125.206C147.342 127.911 144.733 130.218 141.538 131.687C139.41 132.661 137.011 133.248 134.478 133.247C130.67 133.247 127.2 131.932 124.425 129.955C121.64 127.969 119.481 125.324 118.141 122.362Z" fill="#001F4D"/>
<mask id="mask4_27_17640" style="mask-type:luminance" maskUnits="userSpaceOnUse" x="116" y="112" width="37" height="22">
<path fill-rule="evenodd" clip-rule="evenodd" d="M118.141 122.362C117.252 120.386 116.729 118.255 116.727 116.063C116.727 115.057 117.148 114.074 117.882 113.363C118.617 112.652 119.633 112.244 120.672 112.244H148.285C149.323 112.244 150.338 112.652 151.073 113.363C151.808 114.074 152.229 115.057 152.229 116.063C152.22 119.352 151.067 122.496 149.209 125.206C147.342 127.911 144.733 130.218 141.538 131.687C139.41 132.661 137.011 133.248 134.478 133.247C130.67 133.247 127.2 131.932 124.425 129.955C121.64 127.969 119.481 125.324 118.141 122.362Z" fill="white"/>
</mask>
<g mask="url(#mask4_27_17640)">
<path fill-rule="evenodd" clip-rule="evenodd" d="M128.252 125.725C127.887 126.411 127.671 127.149 127.671 127.909C127.671 128.258 127.844 128.599 128.145 128.845C128.167 128.863 128.192 128.886 128.221 128.913C128.596 129.258 129.704 130.281 134.967 130.281C140.229 130.281 141.337 129.258 141.711 128.913C141.741 128.886 141.766 128.863 141.787 128.845C142.09 128.599 142.262 128.258 142.262 127.909C142.259 126.769 141.785 125.679 141.021 124.74C140.254 123.802 139.182 123.002 137.868 122.493C136.994 122.155 136.008 121.952 134.967 121.952C133.402 121.952 131.975 122.408 130.835 123.093C129.69 123.782 128.803 124.699 128.252 125.725Z" fill="#FE5F62"/>
</g>
<path d="M192.987 126.105C161.33 140.541 136.382 122.88 127.472 112.767L139.92 83.3464C144.768 83.3464 149.739 81.1235 156.561 93.415C165.995 110.414 177.173 106.791 185.911 103.091C194.559 99.4299 198.287 90.834 203.994 84.0002C209.235 77.7237 223.255 73.6702 220.504 93.415C217.897 112.116 200.412 122.88 192.987 126.105Z" fill="#B9E1FF"/>
<path fill-rule="evenodd" clip-rule="evenodd" d="M153.402 88.3399C153.75 89.0543 153.452 89.9151 152.736 90.2626C151.222 90.9975 148.558 92.6141 146.151 94.5057C144.951 95.4488 143.849 96.4344 142.997 97.386C142.122 98.3624 141.613 99.1906 141.439 99.8149C141.226 100.58 140.432 101.028 139.665 100.816C138.898 100.603 138.449 99.8104 138.662 99.045C139.012 97.7864 139.869 96.5616 140.847 95.4688C141.849 94.3511 143.089 93.251 144.367 92.2458C146.918 90.2408 149.757 88.5099 151.475 87.6757C152.191 87.3282 153.053 87.6256 153.402 88.3399Z" fill="#001F4D"/>
<path fill-rule="evenodd" clip-rule="evenodd" d="M159.429 95.924C159.777 96.6384 159.479 97.4992 158.763 97.8467C157.236 98.5883 154.836 100.011 152.706 101.695C151.643 102.535 150.677 103.417 149.927 104.288C149.164 105.172 148.697 105.962 148.515 106.614C148.302 107.38 147.508 107.828 146.741 107.615C145.974 107.403 145.525 106.61 145.738 105.845C146.08 104.614 146.847 103.449 147.741 102.411C148.648 101.359 149.762 100.352 150.916 99.4401C153.219 97.6196 155.798 96.0873 157.502 95.2598C158.218 94.9123 159.081 95.2097 159.429 95.924Z" fill="#001F4D"/>
<path fill-rule="evenodd" clip-rule="evenodd" d="M165.456 102.462C165.805 103.176 165.507 104.037 164.791 104.385C163.248 105.134 161.532 106.154 160.096 107.405C158.65 108.664 157.584 110.073 157.163 111.583C156.95 112.349 156.156 112.797 155.389 112.584C154.622 112.372 154.173 111.579 154.386 110.813C155.013 108.558 156.524 106.698 158.201 105.237C159.887 103.768 161.84 102.618 163.53 101.798C164.246 101.45 165.108 101.748 165.456 102.462Z" fill="#001F4D"/>
<path fill-rule="evenodd" clip-rule="evenodd" d="M127.4 110.984C137.826 121.177 161.36 135.268 190.629 121.921C198.054 118.695 215.539 107.931 218.145 89.2306C218.514 86.5844 218.581 84.3656 218.409 82.5223C219.689 84.7963 220.221 88.4468 219.455 93.938C216.849 112.639 199.364 123.403 191.939 126.628C160.282 141.064 135.334 123.403 126.424 113.291L127.4 110.984Z" fill="#81B0E0"/>
<path fill-rule="evenodd" clip-rule="evenodd" d="M221.142 82.1541C222.304 84.7997 222.636 88.5539 221.931 93.6131C220.571 103.376 215.331 111.019 209.555 116.597C203.789 122.164 197.416 125.748 193.574 127.419C161.089 142.225 134.45 123.27 125.341 112.933C124.815 112.336 124.874 111.427 125.472 110.903C126.07 110.378 126.98 110.437 127.506 111.033C136.216 120.919 161.564 138.853 192.388 124.797L192.4 124.791L192.412 124.786C195.997 123.229 202.071 119.82 207.55 114.53C213.024 109.244 217.83 102.154 219.076 93.2168C219.747 88.4036 219.359 85.2602 218.502 83.3087C217.682 81.4428 216.42 80.6163 214.996 80.3662C213.482 80.1003 211.636 80.4688 209.791 81.3455C207.96 82.2155 206.27 83.5206 205.101 84.921C203.716 86.5799 202.442 88.3554 201.155 90.1794C201.016 90.3773 200.876 90.5758 200.736 90.7748C199.594 92.3962 198.429 94.0499 197.189 95.6243C194.394 99.1718 191.119 102.449 186.474 104.415C182.113 106.262 176.792 108.26 171.284 107.438C165.645 106.595 160.162 102.873 155.3 94.1118C151.995 88.1572 148.724 85.406 145.894 84.0954C143.14 82.8199 140.643 82.8217 138.446 82.8232C138.369 82.8233 138.293 82.8234 138.216 82.8234C137.42 82.8234 136.775 82.1794 136.775 81.385C136.775 80.5906 137.42 79.9466 138.216 79.9466C138.316 79.9466 138.418 79.9465 138.521 79.9463C140.709 79.9427 143.764 79.9376 147.108 81.486C150.631 83.1175 154.305 86.3813 157.821 92.7181C162.393 100.956 167.216 103.921 171.71 104.592C176.334 105.283 180.971 103.62 185.349 101.767C189.352 100.072 192.264 97.2207 194.922 93.8465C196.112 92.3367 197.23 90.7488 198.378 89.1191C198.518 88.9211 198.658 88.7224 198.799 88.5232C200.086 86.699 201.418 84.8374 202.886 83.0794C204.338 81.3415 206.366 79.7863 208.552 78.748C210.723 77.7164 213.194 77.1288 215.496 77.533C217.888 77.953 219.943 79.423 221.142 82.1541Z" fill="#001F4D"/>
<path fill-rule="evenodd" clip-rule="evenodd" d="M141.336 142.958C150.525 139.351 163.074 137.167 176.825 137.167C190.577 137.167 203.125 139.351 212.315 142.958C216.903 144.759 220.763 146.957 223.511 149.508C226.263 152.061 228.057 155.127 228.057 158.585C228.057 162.043 226.263 165.109 223.511 167.663C220.763 170.214 216.903 172.412 212.315 174.213C203.125 177.82 190.577 180.004 176.825 180.004C163.074 180.004 150.525 177.82 141.336 174.213C136.747 172.412 132.888 170.214 130.139 167.663C127.387 165.109 125.593 162.043 125.593 158.585C125.593 155.127 127.387 152.061 130.139 149.508C132.888 146.957 136.747 144.759 141.336 142.958Z" fill="white"/>
<path fill-rule="evenodd" clip-rule="evenodd" d="M133.078 152.667C130.863 154.723 129.911 156.724 129.911 158.585C129.911 160.446 130.863 162.448 133.078 164.503C135.295 166.562 138.622 168.514 142.915 170.199C151.486 173.564 163.474 175.692 176.825 175.692C190.176 175.692 202.164 173.564 210.736 170.199C215.028 168.514 218.355 166.562 220.573 164.503C222.788 162.448 223.74 160.446 223.74 158.585C223.74 156.724 222.788 154.723 220.573 152.667C218.355 150.609 215.028 148.656 210.736 146.972C202.164 143.607 190.176 141.479 176.825 141.479C163.474 141.479 151.486 143.607 142.915 146.972C138.622 148.656 135.295 150.609 133.078 152.667ZM141.336 142.958C150.525 139.351 163.074 137.167 176.825 137.167C190.577 137.167 203.125 139.351 212.315 142.958C216.903 144.759 220.763 146.957 223.511 149.508C226.263 152.061 228.057 155.127 228.057 158.585C228.057 162.043 226.263 165.109 223.511 167.663C220.763 170.214 216.903 172.412 212.315 174.213C203.125 177.82 190.577 180.004 176.825 180.004C163.074 180.004 150.525 177.82 141.336 174.213C136.747 172.412 132.888 170.214 130.139 167.663C127.387 165.109 125.593 162.043 125.593 158.585C125.593 155.127 127.387 152.061 130.139 149.508C132.888 146.957 136.747 144.759 141.336 142.958Z" fill="#001F4D"/>
<path fill-rule="evenodd" clip-rule="evenodd" d="M143.522 155.236C141.846 156.49 141.423 157.499 141.423 158.154C141.423 158.809 141.846 159.818 143.522 161.072C145.16 162.298 147.667 163.493 150.96 164.535C157.52 166.611 166.716 167.929 176.969 167.929C187.222 167.929 196.418 166.611 202.978 164.535C206.271 163.493 208.778 162.298 210.416 161.072C212.093 159.818 212.515 158.809 212.515 158.154C212.515 157.499 212.093 156.49 210.416 155.236C208.778 154.01 206.271 152.815 202.978 151.773C196.418 149.697 187.222 148.379 176.969 148.379C166.716 148.379 157.52 149.697 150.96 151.773C147.667 152.815 145.16 154.01 143.522 155.236ZM149.656 147.662C156.743 145.419 166.399 144.067 176.969 144.067C187.539 144.067 197.196 145.419 204.282 147.662C207.813 148.779 210.827 150.155 213.005 151.784C215.144 153.385 216.832 155.515 216.832 158.154C216.832 160.794 215.144 162.923 213.005 164.524C210.827 166.153 207.813 167.529 204.282 168.646C197.196 170.889 187.539 172.242 176.969 172.242C166.399 172.242 156.743 170.889 149.656 168.646C146.125 167.529 143.111 166.153 140.934 164.524C138.794 162.923 137.106 160.794 137.106 158.154C137.106 155.515 138.794 153.385 140.934 151.784C143.111 150.155 146.125 148.779 149.656 147.662Z" fill="#001F4D"/>
<path d="M193.663 158.01C193.663 161.345 186.189 164.048 176.969 164.048C167.75 164.048 160.276 161.345 160.276 158.01C160.276 154.676 167.75 151.973 176.969 151.973C186.189 151.973 193.663 154.676 193.663 158.01Z" fill="#E7417D"/>
<path d="M177.833 245.698C204.379 245.698 225.899 237.074 225.899 226.435V160.023C225.227 166.06 214.328 178.25 176.106 178.71C137.951 179.169 127.979 165.152 127.753 158.048L129.767 226.435C129.767 237.074 151.286 245.698 177.833 245.698Z" fill="#001F4D"/>
<path fill-rule="evenodd" clip-rule="evenodd" d="M125.595 158.111L125.594 158.074L129.91 157.947L129.911 157.982C129.995 160.607 131.969 165.295 138.81 169.362C145.643 173.425 157.238 176.781 176.08 176.554C194.99 176.327 206.911 173.196 214.104 169.537C221.371 165.84 223.531 161.781 223.753 159.785L228.057 158.729V226.435C228.057 229.876 226.308 232.938 223.607 235.498C220.91 238.052 217.124 240.254 212.624 242.057C203.612 245.669 191.311 247.854 177.832 247.854C164.354 247.854 152.053 245.669 143.041 242.057C138.541 240.254 134.755 238.052 132.058 235.498C129.366 232.947 127.619 229.896 127.608 226.469L125.595 158.117L125.595 158.111ZM130.205 167.997L131.925 226.404V226.435C131.925 228.313 132.866 230.319 135.029 232.369C137.198 234.423 140.45 236.372 144.649 238.055C153.033 241.415 164.764 243.542 177.832 243.542C190.901 243.542 202.632 241.415 211.016 238.055C215.215 236.372 218.467 234.423 220.636 232.369C222.799 230.319 223.74 228.313 223.74 226.435V168.018C221.858 169.885 219.325 171.72 216.063 173.379C208.083 177.44 195.443 180.634 176.132 180.866C156.818 181.099 144.35 177.675 136.602 173.068C133.95 171.491 131.84 169.765 130.205 167.997Z" fill="#001F4D"/>
<path d="M148.767 231.313C147.9 231.313 147.173 231.02 146.588 230.434C146.023 229.868 145.741 229.089 145.741 228.099V190.86C145.741 189.91 146.013 189.162 146.558 188.616C147.103 188.05 147.809 187.767 148.677 187.767C149.504 187.767 150.19 188.05 150.735 188.616C151.28 189.162 151.552 189.91 151.552 190.86V193.771H151.673C152.319 192.558 153.136 191.507 154.125 190.617C155.134 189.728 156.284 189.04 157.575 188.555C158.887 188.05 160.309 187.797 161.843 187.797C164.527 187.797 166.867 188.474 168.865 189.829C170.883 191.163 172.447 193.063 173.556 195.53C174.686 197.976 175.251 200.877 175.251 204.233C175.251 207.569 174.696 210.47 173.587 212.936C172.477 215.383 170.923 217.283 168.925 218.637C166.928 219.972 164.607 220.639 161.964 220.639C160.451 220.639 159.038 220.406 157.727 219.941C156.435 219.456 155.295 218.789 154.306 217.94C153.338 217.071 152.541 216.06 151.915 214.907H151.794V228.099C151.794 229.089 151.512 229.868 150.947 230.434C150.382 231.02 149.655 231.313 148.767 231.313ZM160.39 215.453C162.166 215.453 163.699 214.998 164.991 214.089C166.302 213.179 167.311 211.885 168.017 210.207C168.724 208.509 169.077 206.518 169.077 204.233C169.077 201.928 168.724 199.937 168.017 198.259C167.311 196.581 166.302 195.287 164.991 194.377C163.699 193.447 162.166 192.982 160.39 192.982C158.655 192.982 157.141 193.447 155.85 194.377C154.559 195.307 153.55 196.621 152.823 198.32C152.117 199.998 151.764 201.969 151.764 204.233C151.764 206.477 152.117 208.448 152.823 210.146C153.55 211.824 154.559 213.128 155.85 214.058C157.141 214.988 158.655 215.453 160.39 215.453Z" fill="white"/>
<path d="M192.927 232.041C190.163 232.021 187.701 231.495 185.542 230.464C183.403 229.453 181.779 228.079 180.669 226.34C180.467 225.976 180.316 225.622 180.215 225.279C180.114 224.955 180.064 224.622 180.064 224.278C180.064 223.55 180.306 222.954 180.79 222.489C181.274 222.024 181.91 221.791 182.697 221.791C183.504 221.791 184.301 222.196 185.088 223.004C186.4 224.399 187.671 225.41 188.902 226.037C190.133 226.684 191.525 227.027 193.079 227.068C195.823 227.088 197.972 226.39 199.526 224.975C201.079 223.56 201.856 221.72 201.856 219.456V214.422H201.705C201.1 215.575 200.292 216.585 199.284 217.455C198.275 218.304 197.114 218.961 195.803 219.426C194.511 219.891 193.119 220.123 191.626 220.123C188.962 220.123 186.632 219.466 184.634 218.152C182.637 216.838 181.093 214.968 180.003 212.542C178.914 210.116 178.369 207.276 178.369 204.021C178.369 200.685 178.914 197.814 180.003 195.408C181.093 192.982 182.637 191.112 184.634 189.798C186.652 188.464 189.023 187.797 191.747 187.797C193.26 187.797 194.643 188.04 195.894 188.525C197.165 188.99 198.295 189.657 199.284 190.526C200.272 191.395 201.09 192.427 201.735 193.619H201.856V190.89C201.856 189.92 202.139 189.162 202.704 188.616C203.289 188.05 204.015 187.767 204.883 187.767C205.751 187.767 206.467 188.05 207.032 188.616C207.617 189.162 207.91 189.92 207.91 190.89V219.305C207.91 221.892 207.304 224.146 206.094 226.067C204.883 227.988 203.158 229.463 200.918 230.494C198.678 231.546 196.015 232.061 192.927 232.041ZM193.109 215.059C194.865 215.059 196.398 214.614 197.71 213.725C199.021 212.815 200.04 211.531 200.767 209.873C201.493 208.216 201.856 206.265 201.856 204.021C201.856 201.777 201.493 199.826 200.767 198.168C200.04 196.51 199.021 195.216 197.71 194.286C196.398 193.357 194.865 192.892 193.109 192.892C191.394 192.892 189.891 193.346 188.599 194.256C187.308 195.166 186.309 196.45 185.603 198.107C184.896 199.765 184.543 201.736 184.543 204.021C184.543 206.285 184.896 208.246 185.603 209.904C186.309 211.562 187.308 212.835 188.599 213.725C189.891 214.614 191.394 215.059 193.109 215.059Z" fill="white"/>
<path d="M239.932 221.131C239 221.131 238.245 220.831 237.665 220.231C237.106 219.632 236.826 218.835 236.826 217.843V190.603C236.826 189.652 237.095 188.897 237.634 188.339C238.193 187.759 238.907 187.47 239.777 187.47C240.626 187.47 241.319 187.759 241.858 188.339C242.417 188.897 242.696 189.652 242.696 190.603V193.52H242.821C243.297 191.741 244.218 190.293 245.585 189.176C246.951 188.059 248.442 187.501 250.057 187.501C250.658 187.501 251.165 187.573 251.579 187.718C252.014 187.863 252.376 188.059 252.666 188.307C252.935 188.535 253.132 188.835 253.256 189.207C253.401 189.559 253.474 189.972 253.474 190.448C253.474 191.4 253.163 192.123 252.542 192.62C252.252 192.889 251.869 193.085 251.393 193.209C250.917 193.333 250.347 193.406 249.685 193.426C247.324 193.426 245.616 194.14 244.56 195.567C243.525 196.974 243.007 198.701 243.007 200.748V217.843C243.007 218.835 242.717 219.632 242.137 220.231C241.578 220.831 240.843 221.131 239.932 221.131Z" fill="#001F4D"/>
<path d="M268.786 221.131C265.721 221.131 263.04 220.459 260.741 219.114C258.443 217.749 256.652 215.805 255.368 213.282C254.105 210.759 253.474 207.76 253.474 204.285C253.474 200.831 254.116 197.853 255.399 195.35C256.683 192.827 258.464 190.882 260.741 189.517C263.04 188.152 265.721 187.47 268.786 187.47C271.85 187.47 274.521 188.152 276.799 189.517C279.076 190.882 280.857 192.827 282.141 195.35C283.425 197.853 284.067 200.831 284.067 204.285C284.067 207.76 283.425 210.759 282.141 213.282C280.878 215.805 279.097 217.749 276.799 219.114C274.521 220.459 271.85 221.131 268.786 221.131ZM268.786 215.919C270.587 215.919 272.161 215.474 273.507 214.585C274.873 213.675 275.919 212.351 276.643 210.614C277.389 208.856 277.762 206.757 277.762 204.316C277.762 201.834 277.389 199.735 276.643 198.018C275.919 196.281 274.873 194.957 273.507 194.047C272.161 193.137 270.587 192.682 268.786 192.682C266.964 192.682 265.38 193.137 264.034 194.047C262.688 194.957 261.642 196.281 260.897 198.018C260.151 199.735 259.779 201.834 259.779 204.316C259.779 206.757 260.151 208.856 260.897 210.614C261.642 212.351 262.688 213.675 264.034 214.585C265.38 215.474 266.964 215.919 268.786 215.919Z" fill="#001F4D"/>
<path d="M292.173 221.131C291.262 221.131 290.516 220.831 289.937 220.231C289.357 219.632 289.067 218.835 289.067 217.843V178.473C289.067 177.48 289.357 176.684 289.937 176.084C290.516 175.484 291.262 175.184 292.173 175.184C293.084 175.184 293.829 175.484 294.409 176.084C294.989 176.684 295.279 177.48 295.279 178.473V217.843C295.279 218.835 294.989 219.632 294.409 220.231C293.829 220.831 293.084 221.131 292.173 221.131Z" fill="#001F4D"/>
<path d="M305.155 221.131C304.244 221.131 303.499 220.831 302.919 220.231C302.339 219.632 302.049 218.835 302.049 217.843V178.473C302.049 177.48 302.339 176.684 302.919 176.084C303.499 175.484 304.244 175.184 305.155 175.184C306.066 175.184 306.812 175.484 307.392 176.084C307.971 176.684 308.261 177.48 308.261 178.473V217.843C308.261 218.835 307.971 219.632 307.392 220.231C306.812 220.831 306.066 221.131 305.155 221.131Z" fill="#001F4D"/>
</svg>
