<svg width="241" height="144" viewBox="0 0 241 144" fill="none" xmlns="http://www.w3.org/2000/svg">
<path fill-rule="evenodd" clip-rule="evenodd" d="M17.0329 22.9799C14.3024 25.5179 13.1285 27.9895 13.1285 30.2875C13.1285 32.5855 14.3024 35.0571 17.0329 37.5951C19.7669 40.1365 23.8686 42.5476 29.16 44.628C39.7268 48.7824 54.5061 51.41 70.9651 51.41C87.4241 51.41 102.203 48.7824 112.77 44.628C118.062 42.5476 122.163 40.1365 124.897 37.5951C127.628 35.0571 128.802 32.5855 128.802 30.2875C128.802 27.9895 127.628 25.5179 124.897 22.9799C122.163 20.4385 118.062 18.0274 112.77 15.947C102.203 11.7926 87.4241 9.165 70.9651 9.165C54.5061 9.165 39.7268 11.7926 29.16 15.947C23.8686 18.0274 19.7669 20.4385 17.0329 22.9799ZM27.2134 10.9909C38.5426 6.53682 54.0121 3.84 70.9651 3.84C87.9181 3.84 103.388 6.53682 114.717 10.9909C120.373 13.2148 125.131 15.9289 128.52 19.0787C131.912 22.2319 134.124 26.0174 134.124 30.2875C134.124 34.5576 131.912 38.3431 128.52 41.4963C125.131 44.6461 120.373 47.3602 114.717 49.5841C103.388 54.0382 87.9181 56.735 70.9651 56.735C54.0121 56.735 38.5426 54.0382 27.2134 49.5841C21.5569 47.3602 16.7989 44.6461 13.4102 41.4963C10.018 38.3431 7.80616 34.5576 7.80616 30.2875C7.80616 26.0174 10.018 22.2319 13.4102 19.0787C16.7989 15.9289 21.5569 13.2148 27.2134 10.9909Z" fill="white"/>
<path fill-rule="evenodd" clip-rule="evenodd" d="M29.9085 26.1515C27.8421 27.7 27.3216 28.9459 27.3216 29.755C27.3216 30.5641 27.8421 31.81 29.9085 33.3585C31.928 34.8718 35.0194 36.3478 39.0784 37.6343C47.1654 40.1975 58.5022 41.825 71.1425 41.825C83.7827 41.825 95.1196 40.1975 103.207 37.6343C107.266 36.3478 110.357 34.8718 112.376 33.3585C114.443 31.81 114.963 30.5641 114.963 29.755C114.963 28.9459 114.443 27.7 112.376 26.1515C110.357 24.6382 107.266 23.1622 103.207 21.8757C95.1196 19.3125 83.7827 17.685 71.1425 17.685C58.5022 17.685 47.1654 19.3125 39.0784 21.8757C35.0194 23.1622 31.928 24.6382 29.9085 26.1515ZM37.471 16.7994C46.2071 14.0304 58.1114 12.36 71.1425 12.36C84.1736 12.36 96.0778 14.0304 104.814 16.7994C109.167 18.1789 112.882 19.8776 115.567 21.8894C118.205 23.8661 120.286 26.4958 120.286 29.755C120.286 33.0142 118.205 35.6439 115.567 37.6206C112.882 39.6324 109.167 41.3311 104.814 42.7106C96.0778 45.4796 84.1736 47.15 71.1425 47.15C58.1114 47.15 46.2071 45.4796 37.471 42.7106C33.1184 41.3311 29.4026 39.6324 26.7178 37.6206C24.08 35.6439 21.9992 33.0142 21.9992 29.755C21.9992 26.4958 24.08 23.8661 26.7178 21.8894C29.4026 19.8776 33.1184 18.1789 37.471 16.7994Z" fill="white"/>
<path d="M91.7224 29.5775C91.7224 33.6948 82.5084 37.0325 71.1425 37.0325C59.7765 37.0325 50.5626 33.6948 50.5626 29.5775C50.5626 25.4602 59.7765 22.1225 71.1425 22.1225C82.5084 22.1225 91.7224 25.4602 91.7224 29.5775Z" fill="white"/>
<path fill-rule="evenodd" clip-rule="evenodd" d="M7.80857 29.7024L7.8072 29.6558L13.1273 29.4992L13.1285 29.5424C13.2329 32.7833 15.6662 38.5721 24.1 43.5949C32.5234 48.6116 46.8182 52.7552 70.0458 52.4752C93.3593 52.1942 108.055 48.3286 116.922 43.8101C125.881 39.245 128.544 34.233 128.818 31.7685L134.124 30.465V114.068C134.124 118.317 131.968 122.097 128.637 125.257C125.313 128.412 120.646 131.13 115.098 133.357C103.988 137.817 88.8226 140.515 72.2069 140.515C55.5911 140.515 40.4256 137.817 29.3158 133.357C23.7681 131.13 19.1004 128.412 15.7762 125.257C12.457 122.107 10.3039 118.341 10.2899 114.109L7.80876 29.7087L7.80857 29.7024ZM13.4921 41.909L15.6122 114.028V114.068C15.6122 116.387 16.7721 118.863 19.439 121.394C22.1119 123.931 26.122 126.338 31.2975 128.415C41.6341 132.564 56.0965 135.19 72.2069 135.19C88.3172 135.19 102.78 132.564 113.116 128.415C118.292 126.338 122.302 123.931 124.975 121.394C127.642 118.863 128.802 116.387 128.802 114.068V41.9348C126.481 44.2403 123.359 46.5062 119.338 48.5551C109.5 53.5684 93.9173 57.5128 70.11 57.7998C46.3003 58.0868 30.9298 53.8595 21.3776 48.1706C18.1082 46.2235 15.5066 44.0922 13.4921 41.909Z" fill="white"/>
<path d="M36.3753 120.091C35.3056 120.091 34.4101 119.729 33.6887 119.005C32.9922 118.306 32.6439 117.345 32.6439 116.121V70.1394C32.6439 68.9661 32.9798 68.0425 33.6514 67.3685C34.3231 66.6695 35.1937 66.32 36.2634 66.32C37.2833 66.32 38.129 66.6695 38.8007 67.3685C39.4723 68.0425 39.8082 68.9661 39.8082 70.1394V73.7341H39.9574C40.7534 72.2363 41.7609 70.9382 42.9798 69.8398C44.2236 68.7414 45.6415 67.8927 47.2336 67.2936C48.8505 66.6695 50.6043 66.3575 52.4948 66.3575C55.8033 66.3575 58.6889 67.1937 61.1516 68.8662C63.6392 70.5138 65.567 72.8604 66.9352 75.9059C68.3282 78.9264 69.0248 82.5086 69.0248 86.6525C69.0248 90.7714 68.3407 94.3536 66.9725 97.3991C65.6043 100.42 63.6889 102.766 61.2262 104.439C58.7635 106.086 55.9028 106.91 52.6441 106.91C50.7784 106.91 49.0371 106.623 47.4202 106.049C45.8281 105.45 44.4226 104.626 43.2037 103.578C42.0097 102.504 41.0271 101.256 40.2559 99.833H40.1067V116.121C40.1067 117.345 39.7584 118.306 39.0619 119.005C38.3654 119.729 37.4698 120.091 36.3753 120.091ZM50.7038 100.507C52.8928 100.507 54.7834 99.9454 56.3754 98.822C57.9924 97.6987 59.2361 96.101 60.1068 94.0291C60.9775 91.9322 61.4128 89.4733 61.4128 86.6525C61.4128 83.8067 60.9775 81.3478 60.1068 79.2759C59.2361 77.2039 57.9924 75.6063 56.3754 74.483C54.7834 73.3347 52.8928 72.7605 50.7038 72.7605C48.5644 72.7605 46.6988 73.3347 45.1067 74.483C43.5147 75.6313 42.2709 77.2539 41.3753 79.3508C40.5047 81.4227 40.0694 83.8566 40.0694 86.6525C40.0694 89.4234 40.5047 91.8573 41.3753 93.9542C42.2709 96.0262 43.5147 97.6363 45.1067 98.7846C46.6988 99.9329 48.5644 100.507 50.7038 100.507Z" fill="white"/>
<path d="M90.816 120.989C87.408 120.964 84.3731 120.315 81.7114 119.042C79.0746 117.794 77.0721 116.097 75.7039 113.95C75.4552 113.5 75.2686 113.064 75.1442 112.639C75.0198 112.24 74.9576 111.828 74.9576 111.403C74.9576 110.505 75.2562 109.768 75.8532 109.194C76.4502 108.62 77.2338 108.333 78.2039 108.333C79.199 108.333 80.1816 108.832 81.1517 109.831C82.7686 111.553 84.3358 112.801 85.8532 113.575C87.3707 114.374 89.0871 114.798 91.0025 114.848C94.3856 114.873 97.0349 114.012 98.9503 112.265C100.866 110.517 101.823 108.246 101.823 105.45V99.2339H101.637C100.891 100.657 99.8956 101.905 98.6518 102.978C97.408 104.027 95.9777 104.838 94.3608 105.412C92.7687 105.986 91.0523 106.274 89.2115 106.274C85.9279 106.274 83.0547 105.462 80.592 103.84C78.1293 102.217 76.2263 99.9079 74.883 96.9123C73.5397 93.9168 72.8681 90.4094 72.8681 86.3904C72.8681 82.2715 73.5397 78.7267 74.883 75.7561C76.2263 72.7605 78.1293 70.4514 80.592 68.8288C83.0796 67.1812 86.0025 66.3575 89.3607 66.3575C91.2264 66.3575 92.9304 66.657 94.4727 67.2561C96.0399 67.8303 97.4329 68.6541 98.6518 69.7275C99.8707 70.8009 100.878 72.074 101.674 73.5468H101.823V70.1768C101.823 68.9786 102.172 68.0425 102.868 67.3685C103.59 66.6695 104.485 66.32 105.555 66.32C106.625 66.32 107.508 66.6695 108.204 67.3685C108.926 68.0425 109.286 68.9786 109.286 70.1768V105.263C109.286 108.458 108.54 111.241 107.047 113.613C105.555 115.984 103.428 117.807 100.667 119.08C97.9056 120.378 94.6219 121.014 90.816 120.989ZM91.0398 100.02C93.204 100.02 95.0946 99.4711 96.7115 98.3727C98.3284 97.2493 99.5847 95.6642 100.48 93.6172C101.376 91.5702 101.823 89.1613 101.823 86.3904C101.823 83.6195 101.376 81.2105 100.48 79.1635C99.5847 77.1166 98.3284 75.5189 96.7115 74.3706C95.0946 73.2223 93.204 72.6482 91.0398 72.6482C88.9254 72.6482 87.0721 73.2098 85.4801 74.3332C83.888 75.4565 82.6567 77.0417 81.786 79.0887C80.9154 81.1356 80.4801 83.5695 80.4801 86.3904C80.4801 89.1863 80.9154 91.6077 81.786 93.6547C82.6567 95.7016 83.888 97.2743 85.4801 98.3727C87.0721 99.4711 88.9254 100.02 91.0398 100.02Z" fill="white"/>
<path d="M148.764 107.518C147.615 107.518 146.683 107.148 145.969 106.407C145.279 105.666 144.935 104.683 144.935 103.457V69.8227C144.935 68.6479 145.267 67.7157 145.93 67.0262C146.619 66.3111 147.5 65.9536 148.572 65.9536C149.619 65.9536 150.474 66.3111 151.138 67.0262C151.827 67.7157 152.171 68.6479 152.171 69.8227V73.4236H152.325C152.912 71.2273 154.048 69.4396 155.732 68.0605C157.417 66.6814 159.255 65.9919 161.246 65.9919C161.986 65.9919 162.612 66.0813 163.122 66.26C163.658 66.4388 164.105 66.6814 164.462 66.9879C164.794 67.2688 165.037 67.6391 165.19 68.0988C165.368 68.533 165.458 69.0438 165.458 69.6311C165.458 70.8059 165.075 71.6998 164.309 72.3127C163.952 72.6447 163.48 72.8873 162.892 73.0406C162.305 73.1938 161.603 73.2832 160.786 73.3087C157.877 73.3087 155.771 74.1898 154.469 75.952C153.192 77.6886 152.554 79.8211 152.554 82.3494V103.457C152.554 104.683 152.197 105.666 151.482 106.407C150.793 107.148 149.887 107.518 148.764 107.518Z" fill="white"/>
<path d="M184.334 107.518C180.557 107.518 177.251 106.688 174.417 105.028C171.584 103.342 169.376 100.942 167.793 97.8259C166.236 94.7102 165.458 91.0071 165.458 86.7165C165.458 82.4516 166.249 78.774 167.832 75.6838C169.414 72.5681 171.61 70.1675 174.417 68.4819C177.251 66.7963 180.557 65.9536 184.334 65.9536C188.112 65.9536 191.405 66.7963 194.213 68.4819C197.021 70.1675 199.216 72.5681 200.799 75.6838C202.381 78.774 203.173 82.4516 203.173 86.7165C203.173 91.0071 202.381 94.7102 200.799 97.8259C199.242 100.942 197.046 103.342 194.213 105.028C191.405 106.688 188.112 107.518 184.334 107.518ZM184.334 101.082C186.555 101.082 188.495 100.533 190.154 99.4348C191.839 98.3111 193.128 96.6766 194.022 94.5314C194.941 92.3606 195.4 89.7684 195.4 86.7549C195.4 83.6902 194.941 81.098 194.022 78.9783C193.128 76.8331 191.839 75.1986 190.154 74.0749C188.495 72.9512 186.555 72.3893 184.334 72.3893C182.088 72.3893 180.135 72.9512 178.476 74.0749C176.817 75.1986 175.528 76.8331 174.609 78.9783C173.69 81.098 173.231 83.6902 173.231 86.7549C173.231 89.7684 173.69 92.3606 174.609 94.5314C175.528 96.6766 176.817 98.3111 178.476 99.4348C180.135 100.533 182.088 101.082 184.334 101.082Z" fill="white"/>
<path d="M213.166 107.518C212.043 107.518 211.124 107.148 210.409 106.407C209.695 105.666 209.337 104.683 209.337 103.457V54.8442C209.337 53.6184 209.695 52.6351 210.409 51.8945C211.124 51.1539 212.043 50.7836 213.166 50.7836C214.289 50.7836 215.208 51.1539 215.923 51.8945C216.638 52.6351 216.995 53.6184 216.995 54.8442V103.457C216.995 104.683 216.638 105.666 215.923 106.407C215.208 107.148 214.289 107.518 213.166 107.518Z" fill="white"/>
<path d="M229.171 107.518C228.048 107.518 227.129 107.148 226.414 106.407C225.7 105.666 225.342 104.683 225.342 103.457V54.8442C225.342 53.6184 225.7 52.6351 226.414 51.8945C227.129 51.1539 228.048 50.7836 229.171 50.7836C230.294 50.7836 231.213 51.1539 231.928 51.8945C232.643 52.6351 233 53.6184 233 54.8442V103.457C233 104.683 232.643 105.666 231.928 106.407C231.213 107.148 230.294 107.518 229.171 107.518Z" fill="white"/>
</svg>
