<svg width="144" height="144" viewBox="0 0 144 144" fill="none" xmlns="http://www.w3.org/2000/svg">
<path d="M72.1 8C57.2678 8 43.4005 10.3452 32.8875 14.4764C27.6601 16.5306 22.7773 19.2151 19.0396 22.6877C15.5488 25.9309 12.4495 30.4803 12.0447 36.1912L12.0031 36.1924L12.0171 36.6739C12.0058 36.9329 12 37.1942 12 37.4579H12.0398L14.0729 107.494C14.1296 113.649 17.2957 118.556 20.9577 122.03C24.637 125.52 29.4462 128.219 34.5926 130.284C44.9378 134.435 58.5693 136.786 73.136 136.786C87.7027 136.786 101.334 134.435 111.679 130.284C116.826 128.219 121.635 125.52 125.314 122.03C129.01 118.525 132.2 113.559 132.2 107.328L132.2 37.4579C132.2 31.1502 128.906 26.1672 125.16 22.6877C121.423 19.2151 116.54 16.5306 111.312 14.4764C100.799 10.3452 86.9322 8 72.1 8Z" fill="white"/>
<path fill-rule="evenodd" clip-rule="evenodd" d="M36.1866 20.773C45.6394 17.0584 58.5469 14.8094 72.6921 14.8094C86.8374 14.8094 99.7448 17.0584 109.198 20.773C113.917 22.6277 117.887 24.8911 120.715 27.518C123.545 30.1476 125.391 33.3047 125.391 36.8658C125.391 40.4269 123.545 43.5839 120.715 46.2135C117.887 48.8404 113.917 51.1039 109.198 52.9585C99.7448 56.6731 86.8374 58.9222 72.6921 58.9222C58.5469 58.9222 45.6394 56.6731 36.1866 52.9585C31.467 51.1039 27.4969 48.8404 24.6695 46.2135C21.8391 43.5839 19.9936 40.4269 19.9936 36.8658C19.9936 33.3047 21.8391 30.1476 24.6695 27.518C27.4969 24.8911 31.467 22.6277 36.1866 20.773Z" fill="white"/>
<path fill-rule="evenodd" clip-rule="evenodd" d="M27.6922 30.7714C25.4139 32.8881 24.4345 34.9493 24.4345 36.8658C24.4345 38.7822 25.4139 40.8434 27.6922 42.9601C29.9734 45.0795 33.3958 47.0903 37.8108 48.8253C46.6275 52.2899 58.9591 54.4813 72.6921 54.4813C86.4252 54.4813 98.7567 52.2899 107.573 48.8253C111.988 47.0903 115.411 45.0795 117.692 42.9601C119.97 40.8434 120.95 38.7822 120.95 36.8658C120.95 34.9493 119.97 32.8881 117.692 30.7714C115.411 28.652 111.988 26.6412 107.573 24.9062C98.7567 21.4416 86.4252 19.2502 72.6921 19.2502C58.9591 19.2502 46.6275 21.4416 37.8108 24.9062C33.3958 26.6412 29.9734 28.652 27.6922 30.7714ZM36.1866 20.773C45.6394 17.0584 58.5469 14.8094 72.6921 14.8094C86.8374 14.8094 99.7448 17.0584 109.198 20.773C113.917 22.6277 117.887 24.8911 120.715 27.518C123.545 30.1476 125.391 33.3047 125.391 36.8658C125.391 40.4269 123.545 43.5839 120.715 46.2135C117.887 48.8404 113.917 51.1039 109.198 52.9585C99.7448 56.6731 86.8374 58.9222 72.6921 58.9222C58.5469 58.9222 45.6394 56.6731 36.1866 52.9585C31.467 51.1039 27.4969 48.8404 24.6695 46.2135C21.8391 43.5839 19.9936 40.4269 19.9936 36.8658C19.9936 33.3047 21.8391 30.1476 24.6695 27.518C27.4969 24.8911 31.467 22.6277 36.1866 20.773Z" fill="black"/>
<path fill-rule="evenodd" clip-rule="evenodd" d="M38.4353 33.4165C36.7111 34.7078 36.2768 35.747 36.2768 36.4217C36.2768 37.0964 36.7111 38.1355 38.4353 39.4269C40.1204 40.689 42.6997 41.9199 46.0865 42.9927C52.8342 45.1304 62.2934 46.4877 72.8401 46.4877C83.3869 46.4877 92.8461 45.1304 99.5938 42.9927C102.981 41.9199 105.56 40.689 107.245 39.4269C108.969 38.1355 109.403 37.0964 109.403 36.4217C109.403 35.747 108.969 34.7078 107.245 33.4165C105.56 32.1544 102.981 30.9235 99.5938 29.8506C92.8461 27.713 83.3869 26.3557 72.8401 26.3557C62.2934 26.3557 52.8342 27.713 46.0865 29.8506C42.6997 30.9235 40.1204 32.1544 38.4353 33.4165ZM44.7453 25.6171C52.0346 23.3079 61.9672 21.9148 72.8401 21.9148C83.713 21.9148 93.6457 23.3079 100.935 25.6171C104.567 26.7676 107.667 28.1842 109.907 29.862C112.108 31.5105 113.844 33.7036 113.844 36.4217C113.844 39.1398 112.108 41.3329 109.907 42.9813C107.667 44.6591 104.567 46.0758 100.935 47.2263C93.6457 49.5355 83.713 50.9286 72.8401 50.9286C61.9672 50.9286 52.0346 49.5355 44.7453 47.2263C41.1136 46.0758 38.0132 44.6591 35.7731 42.9813C33.5722 41.3329 31.836 39.1398 31.836 36.4217C31.836 33.7036 33.5722 31.5105 35.7731 29.862C38.0132 28.1842 41.1136 26.7676 44.7453 25.6171Z" fill="black"/>
<path d="M90.0116 36.2736C90.0116 39.7073 82.3237 42.4909 72.8401 42.4909C63.3566 42.4909 55.6687 39.7073 55.6687 36.2736C55.6687 32.84 63.3566 30.0564 72.8401 30.0564C82.3237 30.0564 90.0116 32.84 90.0116 36.2736Z" fill="#FE5F62"/>
<path d="M73.7283 126.572C101.034 126.572 123.17 117.691 123.17 106.736V38.3461C122.479 44.5633 111.269 57.1162 71.952 57.5899C32.705 58.0628 22.4477 43.6277 22.2152 36.3125L24.2865 106.736C24.2865 117.691 46.4223 126.572 73.7283 126.572Z" fill="black"/>
<path fill-rule="evenodd" clip-rule="evenodd" d="M19.9956 36.3778L19.9945 36.3389L24.4334 36.2084L24.4345 36.2444C24.5215 38.9472 26.5518 43.7749 33.5888 47.9638C40.6172 52.1475 52.5444 55.6031 71.9251 55.3696C91.3774 55.1353 103.639 51.9115 111.038 48.1432C118.513 44.3361 120.735 40.1562 120.963 38.1009L125.391 37.0138V106.736C125.391 110.279 123.591 113.432 120.813 116.068C118.039 118.699 114.145 120.966 109.516 122.823C100.246 126.542 87.5921 128.792 73.7282 128.792C59.8644 128.792 47.2106 126.542 37.9408 122.823C33.3119 120.966 29.4173 118.699 26.6437 116.068C23.8742 113.441 22.0776 110.3 22.066 106.77L19.9958 36.3831L19.9956 36.3778ZM24.7378 46.5577L26.5068 106.703V106.736C26.5068 108.67 27.4746 110.735 29.6998 112.846C31.93 114.961 35.276 116.969 39.5943 118.701C48.2189 122.161 60.2861 124.351 73.7282 124.351C87.1704 124.351 99.2375 122.161 107.862 118.701C112.181 116.969 115.526 114.961 117.757 112.846C119.982 110.735 120.95 108.67 120.95 106.736V46.5793C119.014 48.502 116.408 50.3917 113.053 52.1004C104.845 56.2814 91.843 59.5709 71.9786 59.8102C52.1123 60.0495 39.2875 56.5241 31.3173 51.7797C28.5894 50.1559 26.4187 48.3784 24.7378 46.5577Z" fill="black"/>
<path d="M43.8311 111.759C42.9386 111.759 42.1914 111.457 41.5895 110.853C41.0083 110.27 40.7177 109.469 40.7177 108.449V70.101C40.7177 69.1225 40.9979 68.3522 41.5584 67.7901C42.1188 67.2072 42.8452 66.9158 43.7377 66.9158C44.5887 66.9158 45.2944 67.2072 45.8548 67.7901C46.4152 68.3522 46.6954 69.1225 46.6954 70.101V73.0989H46.82C47.4841 71.8498 48.3248 70.7672 49.3418 69.8512C50.3796 68.9352 51.5627 68.2273 52.891 67.7277C54.2402 67.2072 55.7035 66.947 57.2809 66.947C60.0414 66.947 62.4491 67.6444 64.5039 69.0393C66.5795 70.4133 68.1881 72.3702 69.3297 74.9101C70.492 77.4291 71.0732 80.4166 71.0732 83.8724C71.0732 87.3075 70.5024 90.2949 69.3608 92.8348C68.2192 95.3538 66.621 97.3108 64.5662 98.7056C62.5114 100.08 60.1245 100.767 57.4054 100.767C55.8488 100.767 54.3958 100.527 53.0467 100.048C51.7183 99.5488 50.5456 98.8618 49.5286 97.9874C48.5323 97.0922 47.7125 96.0513 47.069 94.8646H46.9445V108.449C46.9445 109.469 46.6539 110.27 46.0727 110.853C45.4916 111.457 44.7444 111.759 43.8311 111.759ZM55.7865 95.4267C57.613 95.4267 59.1904 94.9583 60.5188 94.0215C61.8679 93.0846 62.9057 91.7522 63.6322 90.0243C64.3586 88.2756 64.7219 86.2249 64.7219 83.8724C64.7219 81.4991 64.3586 79.4485 63.6322 77.7206C62.9057 75.9926 61.8679 74.6603 60.5188 73.7234C59.1904 72.7658 57.613 72.2869 55.7865 72.2869C54.0015 72.2869 52.4448 72.7658 51.1164 73.7234C49.788 74.6811 48.7503 76.0343 48.003 77.783C47.2766 79.511 46.9134 81.5408 46.9134 83.8724C46.9134 86.1833 47.2766 88.2131 48.003 89.9619C48.7503 91.6898 49.788 93.0326 51.1164 93.9902C52.4448 94.9479 54.0015 95.4267 55.7865 95.4267Z" fill="white"/>
<path d="M89.2553 112.508C86.4117 112.487 83.8795 111.946 81.6586 110.884C79.4585 109.844 77.7877 108.428 76.6461 106.637C76.4385 106.263 76.2829 105.898 76.1791 105.544C76.0753 105.211 76.0234 104.868 76.0234 104.514C76.0234 103.765 76.2725 103.15 76.7706 102.672C77.2688 102.193 77.9226 101.953 78.7321 101.953C79.5623 101.953 80.3822 102.37 81.1916 103.202C82.5408 104.639 83.8484 105.68 85.1145 106.325C86.3806 106.991 87.8128 107.345 89.411 107.387C92.2337 107.408 94.4442 106.69 96.0424 105.232C97.6406 103.775 98.4398 101.88 98.4398 99.5488V94.365H98.2841C97.6614 95.5516 96.8312 96.5925 95.7934 97.4877C94.7556 98.3621 93.5621 99.0387 92.213 99.5175C90.8846 99.9964 89.4525 100.236 87.9165 100.236C85.1768 100.236 82.7795 99.5592 80.7246 98.206C78.6698 96.8528 77.082 94.9271 75.9612 92.4288C74.8404 89.9306 74.2799 87.0056 74.2799 83.6538C74.2799 80.2188 74.8404 77.2626 75.9612 74.7852C77.082 72.2869 78.6698 70.3612 80.7246 69.008C82.8002 67.634 85.239 66.947 88.0411 66.947C89.5978 66.947 91.0195 67.1968 92.3064 67.6965C93.614 68.1753 94.7763 68.8623 95.7934 69.7575C96.8104 70.6527 97.651 71.7144 98.3152 72.9427H98.4398V70.1322C98.4398 69.1329 98.7303 68.3522 99.3115 67.7901C99.9134 67.2072 100.661 66.9158 101.553 66.9158C102.446 66.9158 103.182 67.2072 103.764 67.7901C104.366 68.3522 104.667 69.1329 104.667 70.1322V99.3926C104.667 102.057 104.044 104.379 102.798 106.356C101.553 108.334 99.7785 109.854 97.4746 110.916C95.1707 111.998 92.4309 112.529 89.2553 112.508ZM89.4421 95.0207C91.2478 95.0207 92.8253 94.5627 94.1744 93.6467C95.5236 92.7099 96.5717 91.3879 97.3189 89.6808C98.0661 87.9737 98.4398 85.9647 98.4398 83.6538C98.4398 81.343 98.0661 79.334 97.3189 77.6269C96.5717 75.9198 95.5236 74.5874 94.1744 73.6297C92.8253 72.6721 91.2478 72.1933 89.4421 72.1933C87.6778 72.1933 86.1315 72.6617 84.8032 73.5985C83.4748 74.5353 82.4474 75.8573 81.7209 77.5644C80.9945 79.2716 80.6312 81.3014 80.6312 83.6538C80.6312 85.9855 80.9945 88.0049 81.7209 89.712C82.4474 91.4191 83.4748 92.7307 84.8032 93.6467C86.1315 94.5627 87.6778 95.0207 89.4421 95.0207Z" fill="white"/>
</svg>
