<svg width="144" height="144" viewBox="0 0 144 144" fill="none" xmlns="http://www.w3.org/2000/svg">
<g clip-path="url(#clip0_27_17406)">
<path fill-rule="evenodd" clip-rule="evenodd" d="M17.2813 22.2895C14.511 24.8632 13.32 27.3697 13.32 29.7C13.32 32.0303 14.511 34.5368 17.2813 37.1105C20.0552 39.6877 24.2167 42.1328 29.5853 44.2425C40.3061 48.4554 55.301 51.12 72 51.12C88.699 51.12 103.694 48.4554 114.415 44.2425C119.783 42.1328 123.945 39.6877 126.719 37.1105C129.489 34.5368 130.68 32.0303 130.68 29.7C130.68 27.3697 129.489 24.8632 126.719 22.2895C123.945 19.7123 119.783 17.2672 114.415 15.1575C103.694 10.9446 88.699 8.28 72 8.28C55.301 8.28 40.3061 10.9446 29.5853 15.1575C24.2167 17.2672 20.0552 19.7123 17.2813 22.2895ZM27.6103 10.1316C39.1046 5.6148 54.7998 2.88 72 2.88C89.2002 2.88 104.895 5.6148 116.39 10.1316C122.129 12.3868 126.956 15.1392 130.394 18.3333C133.836 21.5309 136.08 25.3698 136.08 29.7C136.08 34.0302 133.836 37.8691 130.394 41.0666C126.956 44.2608 122.129 47.0131 116.39 49.2683C104.895 53.7852 89.2002 56.52 72 56.52C54.7998 56.52 39.1046 53.7852 27.6103 49.2683C21.8713 47.0131 17.0439 44.2608 13.6058 41.0666C10.1641 37.8691 7.92 34.0302 7.92 29.7C7.92 25.3698 10.1641 21.5309 13.6058 18.3333C17.0439 15.1392 21.8713 12.3868 27.6103 10.1316Z" fill="white"/>
<path fill-rule="evenodd" clip-rule="evenodd" d="M30.3447 25.5057C28.2481 27.076 27.72 28.3396 27.72 29.16C27.72 29.9805 28.2481 31.244 30.3447 32.8143C32.3936 34.3489 35.5301 35.8456 39.6483 37.1502C47.8532 39.7495 59.3554 41.4 72.18 41.4C85.0046 41.4 96.5068 39.7495 104.712 37.1502C108.83 35.8456 111.966 34.3489 114.015 32.8143C116.112 31.244 116.64 29.9805 116.64 29.16C116.64 28.3396 116.112 27.076 114.015 25.5057C111.966 23.9711 108.83 22.4744 104.712 21.1698C96.5068 18.5705 85.0046 16.92 72.18 16.92C59.3554 16.92 47.8532 18.5705 39.6483 21.1698C35.5301 22.4744 32.3936 23.9711 30.3447 25.5057ZM38.0174 16.0219C46.881 13.214 58.9589 11.52 72.18 11.52C85.4012 11.52 97.479 13.214 106.343 16.0219C110.759 17.4209 114.529 19.1435 117.253 21.1836C119.929 23.1881 122.04 25.8549 122.04 29.16C122.04 32.4651 119.929 35.1319 117.253 37.1364C114.529 39.1765 110.759 40.8991 106.343 42.2981C97.479 45.106 85.4012 46.8 72.18 46.8C58.9589 46.8 46.881 45.106 38.0174 42.2981C33.6013 40.8991 29.8314 39.1765 27.1075 37.1364C24.4312 35.1319 22.32 32.4651 22.32 29.16C22.32 25.8549 24.4312 23.1881 27.1075 21.1836C29.8314 19.1435 33.6013 17.4209 38.0174 16.0219Z" fill="white"/>
<path d="M93.06 28.98C93.06 33.1553 83.7117 36.54 72.18 36.54C60.6483 36.54 51.3 33.1553 51.3 28.98C51.3 24.8047 60.6483 21.42 72.18 21.42C83.7117 21.42 93.06 24.8047 93.06 28.98Z" fill="white"/>
<path fill-rule="evenodd" clip-rule="evenodd" d="M7.92244 29.1067L7.92105 29.0594L13.3187 28.9006L13.32 28.9444C13.4258 32.2309 15.8947 38.1013 24.4514 43.1949C32.9977 48.2822 47.501 52.4841 71.0674 52.2002C94.7208 51.9152 109.631 47.9952 118.627 43.4131C127.717 38.7837 130.419 33.701 130.696 31.2018L136.08 29.88V114.66C136.08 118.969 133.892 122.803 130.513 126.008C127.141 129.207 122.405 131.963 116.776 134.221C105.505 138.744 90.118 141.48 73.2599 141.48C56.4018 141.48 41.0152 138.744 29.7433 134.221C24.1147 131.963 19.3789 129.207 16.0063 126.008C12.6387 122.813 10.4541 118.994 10.44 114.702L7.92264 29.1131L7.92244 29.1067ZM13.6888 41.4851L15.8399 114.62V114.66C15.8399 117.012 17.0167 119.523 19.7225 122.09C22.4344 124.662 26.503 127.103 31.754 129.21C42.2413 133.417 56.9146 136.08 73.2599 136.08C89.6052 136.08 104.279 133.417 114.766 129.21C120.017 127.103 124.085 124.662 126.797 122.09C129.503 119.523 130.68 117.012 130.68 114.66V41.5114C128.326 43.8494 125.158 46.1471 121.078 48.2249C111.097 53.3088 95.287 57.3088 71.1324 57.5998C46.9755 57.8909 31.3809 53.604 21.6893 47.835C18.3723 45.8604 15.7328 43.6991 13.6888 41.4851Z" fill="white"/>
<path d="M36.9058 120.768C35.8205 120.768 34.9119 120.401 34.18 119.667C33.4733 118.958 33.12 117.983 33.12 116.743V70.1131C33.12 68.9234 33.4607 67.9867 34.1422 67.3032C34.8236 66.5944 35.7069 66.24 36.7922 66.24C37.827 66.24 38.6851 66.5944 39.3665 67.3032C40.048 67.9867 40.3887 68.9234 40.3887 70.1131V73.7585H40.5401C41.3478 72.2396 42.3699 70.9232 43.6066 69.8094C44.8685 68.6955 46.3071 67.8348 47.9224 67.2273C49.5629 66.5944 51.3422 66.278 53.2604 66.278C56.6171 66.278 59.5448 67.126 62.0434 68.8221C64.5672 70.4929 66.5232 72.8725 67.9113 75.9609C69.3247 79.0239 70.0314 82.6566 70.0314 86.8588C70.0314 91.0358 69.3373 94.6684 67.9492 97.7568C66.5611 100.82 64.6177 103.2 62.1191 104.896C59.6205 106.566 56.718 107.402 53.4118 107.402C51.5189 107.402 49.7522 107.111 48.1117 106.528C46.4964 105.921 45.0705 105.085 43.8338 104.022C42.6223 102.934 41.6254 101.668 40.843 100.225H40.6916V116.743C40.6916 117.983 40.3382 118.958 39.6315 119.667C38.9249 120.401 38.0163 120.768 36.9058 120.768ZM51.4432 100.909C53.6642 100.909 55.5823 100.339 57.1976 99.1998C58.8381 98.0606 60.1 96.4405 60.9834 94.3394C61.8667 92.2129 62.3084 89.7194 62.3084 86.8588C62.3084 83.973 61.8667 81.4795 60.9834 79.3783C60.1 77.2772 58.8381 75.6571 57.1976 74.5179C55.5823 73.3534 53.6642 72.7712 51.4432 72.7712C49.2727 72.7712 47.3798 73.3534 45.7645 74.5179C44.1492 75.6824 42.8873 77.3278 41.9787 79.4543C41.0954 81.5554 40.6537 84.0236 40.6537 86.8588C40.6537 89.6688 41.0954 92.137 41.9787 94.2634C42.8873 96.3645 44.1492 97.9973 45.7645 99.1618C47.3798 100.326 49.2727 100.909 51.4432 100.909Z" fill="white"/>
<path d="M92.1404 121.679C88.6827 121.654 85.6036 120.996 82.903 119.705C80.2278 118.439 78.1961 116.718 76.8079 114.541C76.5556 114.085 76.3663 113.642 76.2401 113.211C76.1139 112.806 76.0508 112.389 76.0508 111.958C76.0508 111.047 76.3536 110.3 76.9594 109.718C77.5651 109.136 78.3601 108.845 79.3444 108.845C80.354 108.845 81.3509 109.351 82.3352 110.364C83.9757 112.11 85.5657 113.376 87.1053 114.161C88.6448 114.971 90.3863 115.401 92.3296 115.452C95.7621 115.477 98.45 114.604 100.393 112.832C102.337 111.06 103.308 108.756 103.308 105.921V99.6175H103.119C102.362 101.06 101.352 102.326 100.091 103.415C98.8286 104.478 97.3774 105.301 95.7369 105.883C94.1216 106.465 92.3801 106.756 90.5125 106.756C87.181 106.756 84.2659 105.934 81.7673 104.288C79.2687 102.643 77.3379 100.301 75.9751 97.2632C74.6122 94.2254 73.9307 90.6687 73.9307 86.593C73.9307 82.4161 74.6122 78.8214 75.9751 75.809C77.3379 72.7712 79.2687 70.4296 81.7673 68.7841C84.2912 67.1133 87.2567 66.278 90.6639 66.278C92.5568 66.278 94.2856 66.5817 95.8504 67.1893C97.4405 67.7715 98.8538 68.6069 100.091 69.6955C101.327 70.784 102.349 72.075 103.157 73.5686H103.308V70.1511C103.308 68.936 103.662 67.9867 104.368 67.3032C105.1 66.5944 106.009 66.24 107.094 66.24C108.179 66.24 109.075 66.5944 109.782 67.3032C110.514 67.9867 110.88 68.936 110.88 70.1511V105.731C110.88 108.971 110.123 111.794 108.609 114.199C107.094 116.604 104.936 118.452 102.135 119.743C99.3334 121.059 96.0019 121.705 92.1404 121.679ZM92.3675 100.415C94.5633 100.415 96.4814 99.858 98.1219 98.7441C99.7624 97.605 101.037 95.9975 101.946 93.9217C102.854 91.8459 103.308 89.403 103.308 86.593C103.308 83.7831 102.854 81.3402 101.946 79.2644C101.037 77.1886 99.7624 75.5685 98.1219 74.404C96.4814 73.2395 94.5633 72.6573 92.3675 72.6573C90.2222 72.6573 88.342 73.2269 86.7267 74.366C85.1114 75.5052 83.8621 77.1127 82.9788 79.1885C82.0954 81.2643 81.6537 83.7325 81.6537 86.593C81.6537 89.4283 82.0954 91.8838 82.9788 93.9596C83.8621 96.0354 85.1114 97.6303 86.7267 98.7441C88.342 99.858 90.2222 100.415 92.3675 100.415Z" fill="white"/>
</g>
<defs>
<clipPath id="clip0_27_17406">
<rect width="144" height="144" fill="white"/>
</clipPath>
</defs>
</svg>
