<svg xmlns="http://www.w3.org/2000/svg" xmlns:xlink="http://www.w3.org/1999/xlink" version="1.1" viewBox="-626 -507 1526 1659" width="1526px" height="1659px"><defs><style>@font-face{
    font-family:"DIN Next";
    font-weight: 400;
    src:url("https://whimsical.com/fonts/139e8e25-0eea-4cb4-a5d4-79048803e73d.eot?#iefix");
    src:url("https://whimsical.com/fonts/139e8e25-0eea-4cb4-a5d4-79048803e73d.eot?#iefix") format("eot"),url("https://whimsical.com/fonts/094b15e3-94bd-435b-a595-d40edfde661a.woff2") format("woff2"),url("https://whimsical.com/fonts/7e5fbe11-4858-4bd1-9ec6-a1d9f9d227aa.woff") format("woff"),url("https://whimsical.com/fonts/0f11eff9-9f05-46f5-9703-027c510065d7.ttf") format("truetype"),url("https://whimsical.com/fonts/48b61978-3f30-4274-823c-5cdcd1876918.svg#48b61978-3f30-4274-823c-5cdcd1876918") format("svg");
}
@font-face{
    font-family:"DIN Next";
    font-weight: 400;
    font-style: italic;
    src:url("https://whimsical.com/fonts/df24d5e8-5087-42fd-99b1-b16042d666c8.eot?#iefix");
    src:url("https://whimsical.com/fonts/df24d5e8-5087-42fd-99b1-b16042d666c8.eot?#iefix") format("eot"),url("https://whimsical.com/fonts/46251881-ffe9-4bfb-99c7-d6ce3bebaf3e.woff2") format("woff2"),url("https://whimsical.com/fonts/790ebbf2-62c5-4a32-946f-99d405f9243e.woff") format("woff"),url("https://whimsical.com/fonts/d28199e6-0f4a-42df-97f4-606701c6f75a.ttf") format("truetype"),url("https://whimsical.com/fonts/37a462c0-d86e-492c-b9ab-35e6bd417f6c.svg#37a462c0-d86e-492c-b9ab-35e6bd417f6c") format("svg");
}
@font-face{
    font-weight: 500;
    font-family:"DIN Next";
    src:url("https://whimsical.com/fonts/c5b058fc-55ce-4e06-a175-5c7d9a7e90f4.eot?#iefix");
    src:url("https://whimsical.com/fonts/c5b058fc-55ce-4e06-a175-5c7d9a7e90f4.eot?#iefix") format("eot"),url("https://whimsical.com/fonts/7b29ae40-30ff-4f99-a2b9-cde88669fa2f.woff2") format("woff2"),url("https://whimsical.com/fonts/bf73077c-e354-4562-a085-f4703eb1d653.woff") format("woff"),url("https://whimsical.com/fonts/0ffa6947-5317-4d07-b525-14d08a028821.ttf") format("truetype"),url("https://whimsical.com/fonts/9e423e45-5450-4991-a157-dbe6cf61eb4e.svg#9e423e45-5450-4991-a157-dbe6cf61eb4e") format("svg");
}
@font-face{
    font-family:"DIN Next";
    font-weight: 500;
    font-style: italic;
    src:url("https://whimsical.com/fonts/9897c008-fd65-48a4-afc7-36de2fea97b9.eot?#iefix");
    src:url("https://whimsical.com/fonts/9897c008-fd65-48a4-afc7-36de2fea97b9.eot?#iefix") format("eot"),url("https://whimsical.com/fonts/c7717981-647d-4b76-8817-33062e42d11f.woff2") format("woff2"),url("https://whimsical.com/fonts/b852cd4c-1255-40b1-a2be-73a9105b0155.woff") format("woff"),url("https://whimsical.com/fonts/821b00ad-e741-4e2d-af1a-85594367c8a2.ttf") format("truetype"),url("https://whimsical.com/fonts/d3e3b689-a6b0-45f2-b279-f5e194f87409.svg#d3e3b689-a6b0-45f2-b279-f5e194f87409") format("svg");
}
@font-face{
    font-weight: 700;
    font-family:"DIN Next";
    src:url("https://whimsical.com/fonts/81cd3b08-fd39-4ae3-8d05-9d24709eba84.eot?#iefix");
    src:url("https://whimsical.com/fonts/81cd3b08-fd39-4ae3-8d05-9d24709eba84.eot?#iefix") format("eot"),url("https://whimsical.com/fonts/31704504-4671-47a6-a61e-397f07410d91.woff2") format("woff2"),url("https://whimsical.com/fonts/b8a280da-481f-44a0-8d9c-1bc64bd7227c.woff") format("woff"),url("https://whimsical.com/fonts/276d122a-0fab-447b-9fc0-5d7fb0eafce2.ttf") format("truetype"),url("https://whimsical.com/fonts/8fb8273a-8213-4928-808b-b5bfaf3fd7e9.svg#8fb8273a-8213-4928-808b-b5bfaf3fd7e9") format("svg");
}
@font-face{
    font-family:"DIN Next";
    font-weight: 700;
    font-style: italic;
    src:url("https://whimsical.com/fonts/00cc6df3-ed32-4004-8dd8-1c576600a408.eot?#iefix");
    src:url("https://whimsical.com/fonts/00cc6df3-ed32-4004-8dd8-1c576600a408.eot?#iefix") format("eot"),url("https://whimsical.com/fonts/4132c4c8-680c-4d6d-9251-a2da38503bbd.woff2") format("woff2"),url("https://whimsical.com/fonts/366401fe-6df4-47be-8f55-8a411cff0dd2.woff") format("woff"),url("https://whimsical.com/fonts/dbe4f7ba-fc16-44a6-a577-571620e9edaf.ttf") format("truetype"),url("https://whimsical.com/fonts/f874edca-ee87-4ccf-8b1d-921fbc3c1c36.svg#f874edca-ee87-4ccf-8b1d-921fbc3c1c36") format("svg");
}

@font-face {
    font-family: 'PFDINMonoPro';
    src:url('https://whimsical.com/fonts/PFDINMonoPro-Regular.woff') format('woff');
    font-weight: 400;
}
@font-face {
    font-family: 'PFDINMonoPro';
    src:url('https://whimsical.com/fonts/PFDINMonoPro-Italic.woff') format('woff');
    font-style: italic;
    font-weight: 400;
}
@font-face {
    font-family: 'PFDINMonoPro';
    src:url('https://whimsical.com/fonts/PFDINMonoPro-Bold.woff') format('woff');
    font-weight: 700;
}
@font-face {
    font-family: 'PFDINMonoPro';
    src:url('https://whimsical.com/fonts/PFDINMonoPro-BoldItalic.woff') format('woff');
    font-style: italic;
    font-weight: 700;
}
* {-webkit-font-smoothing: auto; -moz-osx-font-smoothing: auto;}@media print { svg { width: 100%; height: 100%; } }</style><g><filter id="white-fill-shadow"><feDropShadow dx="0" dy="2" stdDeviation="6" flood-opacity="0.03" flood-color="#000000"></feDropShadow></filter><filter id="light-gray-fill-shadow"><feDropShadow dx="0" dy="2" stdDeviation="6" flood-opacity="0.09" flood-color="#000000"></feDropShadow></filter><filter id="yellow-fill-shadow"><feDropShadow dx="0" dy="2" stdDeviation="6" flood-opacity="0.12" flood-color="#000000"></feDropShadow></filter><filter id="fill-shadow"><feDropShadow dx="0" dy="2" stdDeviation="6" flood-opacity="0.16" flood-color="#000000"></feDropShadow></filter><filter id="frame-shadow"><feDropShadow dx="0" dy="3" stdDeviation="8" flood-opacity="0.06" flood-color="#000000"></feDropShadow></filter><filter id="button-shadow"><feDropShadow dx="0" dy="2" stdDeviation="6" flood-opacity="0.03" flood-color="#000000"></feDropShadow></filter><filter id="button-hover-shadow"><feDropShadow dx="0" dy="2" stdDeviation="6" flood-opacity="0.08" flood-color="#000000"></feDropShadow></filter><filter id="badge-shadow"><feDropShadow dx="0" dy="2" stdDeviation="6" flood-opacity="0.08" flood-color="#000000"></feDropShadow></filter></g></defs><g><g><rect x="-626" y="36" width="230" height="276" rx="3" ry="3" fill="#ffffff"></rect><rect y="36" stroke-dasharray="5, 8" rx="3" stroke="#C3CFD9" fill="none" stroke-linejoin="round" width="230" stroke-dashoffset="7" stroke-linecap="round" stroke-width="2" x="-626" ry="3" height="276"></rect></g><g><g><g class="content"><g><g><g><g><g></g><text fill="#293845"><tspan x="-615" y="66.5" font-family="DIN Next, sans-serif" font-size="18" font-style="normal" font-weight="normal">new version view</tspan></text></g></g></g></g></g></g><g><g><g><rect x="-593" y="96" width="104" height="40" fill="#ffffff" stroke-width="2" stroke="#C3CFD9"></rect><rect x="-593" y="136" width="104" height="40" fill="#ffffff" stroke-width="2" stroke="#C3CFD9"></rect><rect x="-593" y="176" width="104" height="40" fill="#ffffff" stroke-width="2" stroke="#C3CFD9"></rect><rect x="-593" y="216" width="104" height="40" fill="#ffffff" stroke-width="2" stroke="#C3CFD9"></rect><rect x="-593" y="256" width="104" height="40" fill="#ffffff" stroke-width="2" stroke="#C3CFD9"></rect></g><g></g><g><text y="104" font-style="normal" font-size="18" font-weight="bold" fill="#293845" width="78" xml:space="preserve" x="-580" font-family="DIN Next, sans-serif" height="24"><tspan x="-580" y="122" text-anchor="start" style="white-space:pre;">Users﻿</tspan></text><text y="144" font-style="normal" font-size="18" font-weight="normal" fill="#293845" width="78" xml:space="preserve" x="-580" font-family="DIN Next, sans-serif" height="24"><tspan x="-580" y="162" text-anchor="start" style="white-space:pre;">id﻿</tspan></text><text y="184" font-style="normal" font-size="18" font-weight="bold" fill="#293845" width="78" xml:space="preserve" x="-580" font-family="DIN Next, sans-serif" height="24"><tspan x="-580" y="202" text-anchor="start" style="white-space:pre;">firstname﻿</tspan></text><text y="224" font-style="normal" font-size="18" font-weight="bold" fill="#293845" width="78" xml:space="preserve" x="-580" font-family="DIN Next, sans-serif" height="24"><tspan x="-580" y="242" text-anchor="start" style="white-space:pre;">lastname</tspan></text><text y="264" font-style="normal" font-size="18" font-weight="normal" fill="#293845" width="78" xml:space="preserve" x="-580" font-family="DIN Next, sans-serif" height="24"><tspan x="-580" y="282" text-anchor="start" style="white-space:pre;">age﻿</tspan></text></g></g></g></g></g><g><g><rect x="-312" y="-204" width="348.00000000000006" height="324" rx="3" ry="3" fill="#ffffff"></rect><rect y="-204" stroke-dasharray="5, 8" rx="3" stroke="#C3CFD9" fill="none" stroke-linejoin="round" width="348.00000000000006" stroke-dashoffset="7" stroke-linecap="round" stroke-width="2" x="-312" ry="3" height="324"></rect></g><g><g><g><g><rect x="-276" y="-64" width="221" height="40" fill="#ffffff" stroke-width="2" stroke="#C3CFD9"></rect><rect x="-55" y="-24" width="62" height="40" fill="#ffffff" stroke-width="2" stroke="#C3CFD9"></rect><rect x="-55" y="-64" width="62" height="40" fill="#ffffff" stroke-width="2" stroke="#C3CFD9"></rect><rect x="-276" y="-104" width="221" height="40" fill="#ffffff" stroke-width="2" stroke="#C3CFD9"></rect><rect x="-276" y="-24" width="221" height="40" fill="#ffffff" stroke-width="2" stroke="#C3CFD9"></rect><rect x="-276" y="56" width="221" height="40" fill="#ffffff" stroke-width="2" stroke="#C3CFD9"></rect><rect x="-55" y="16" width="62" height="40" fill="#ffffff" stroke-width="2" stroke="#C3CFD9"></rect><rect x="-55" y="-144" width="62" height="40" fill="#ffffff" stroke-width="2" stroke="#C3CFD9"></rect><rect x="-276" y="-144" width="221" height="40" fill="#ffffff" stroke-width="2" stroke="#C3CFD9"></rect><rect x="-55" y="56" width="62" height="40" fill="#ffffff" stroke-width="2" stroke="#C3CFD9"></rect><rect x="-55" y="-104" width="62" height="40" fill="#ffffff" stroke-width="2" stroke="#C3CFD9"></rect><rect x="-276" y="16" width="221" height="40" fill="#ffffff" stroke-width="2" stroke="#C3CFD9"></rect></g><g></g><g><text y="-136" font-style="normal" font-size="18" font-weight="bold" fill="#293845" width="195" xml:space="preserve" x="-263" font-family="DIN Next, sans-serif" height="24"><tspan x="-263" y="-118" text-anchor="start" style="white-space:pre;">Users﻿</tspan></text><text y="-136" font-style="normal" font-size="18" font-weight="bold" fill="#293845" width="36" xml:space="preserve" x="-42" font-family="DIN Next, sans-serif" height="24"><tspan x="-42" y="-118" text-anchor="start" style="white-space:pre;"></tspan></text><text y="-96" font-style="normal" font-size="18" font-weight="normal" fill="#293845" width="195" xml:space="preserve" x="-263" font-family="DIN Next, sans-serif" height="24"><tspan x="-263" y="-78" text-anchor="start" style="white-space:pre;">id﻿</tspan></text><text y="-96" font-style="normal" font-size="18" font-weight="normal" fill="#293845" width="36" xml:space="preserve" x="-42" font-family="DIN Next, sans-serif" height="24"><tspan x="-42" y="-78" text-anchor="start" style="white-space:pre;">text﻿</tspan></text><text y="-56" font-style="normal" font-size="18" font-weight="normal" fill="#293845" width="195" xml:space="preserve" x="-263" font-family="DIN Next, sans-serif" height="24"><tspan x="-263" y="-38" text-anchor="start" style="white-space:pre;">fullname﻿</tspan></text><text y="-56" font-style="normal" font-size="18" font-weight="normal" fill="#293845" width="36" xml:space="preserve" x="-42" font-family="DIN Next, sans-serif" height="24"><tspan x="-42" y="-38" text-anchor="start" style="white-space:pre;">text﻿</tspan></text><text y="-16" font-style="normal" font-size="18" font-weight="normal" fill="#293845" width="195" xml:space="preserve" x="-263" font-family="DIN Next, sans-serif" height="24"><tspan x="-263" y="2" text-anchor="start" style="white-space:pre;">age﻿</tspan></text><text y="-16" font-style="normal" font-size="18" font-weight="normal" fill="#293845" width="36" xml:space="preserve" x="-42" font-family="DIN Next, sans-serif" height="24"><tspan x="-42" y="2" text-anchor="start" style="white-space:pre;">float﻿</tspan></text><text y="24" font-style="normal" font-size="18" font-weight="normal" fill="#293845" width="195" xml:space="preserve" x="-263" font-family="DIN Next, sans-serif" height="24"><tspan x="-263" y="42" text-anchor="start" style="white-space:pre;">_pgroll_new_age﻿_notnull</tspan></text><text y="24" font-style="normal" font-size="18" font-weight="normal" fill="#293845" width="36" xml:space="preserve" x="-42" font-family="DIN Next, sans-serif" height="24"><tspan x="-42" y="42" text-anchor="start" style="white-space:pre;">float</tspan></text><text y="64" font-style="normal" font-size="18" font-weight="normal" fill="#293845" width="195" xml:space="preserve" x="-263" font-family="DIN Next, sans-serif" height="24"><tspan x="-263" y="82" text-anchor="start" style="white-space:pre;">_pgroll_new_lastname﻿</tspan></text><text y="64" font-style="normal" font-size="18" font-weight="normal" fill="#293845" width="36" xml:space="preserve" x="-42" font-family="DIN Next, sans-serif" height="24"><tspan x="-42" y="82" text-anchor="start" style="white-space:pre;">text﻿</tspan></text></g></g><g><g><g><path d="M20,0h52.5c3.93816,0 7.52185,1.51765 10.19813,4M82.69813,32c-2.67628,2.48235 -6.25997,4 -10.19813,4h-48.5" fill="none" stroke="#788896" stroke-linecap="round" stroke-linejoin="round" stroke-width="4"></path><polygon points="27.0921,41.54095 20,36 27.0921,30.45905" fill="#788896" stroke="#788896" stroke-width="2" stroke-linecap="round" stroke-linejoin="round"></polygon><text y="6" font-style="normal" font-size="18" font-weight="normal" fill="#293845" width="57" xml:space="preserve" x="59.5" font-family="DIN Next, sans-serif" height="24"><tspan x="88" y="24" text-anchor="middle" style="white-space:pre;">backfill</tspan></text></g></g></g></g><g><g class="content"><g><g><g><g><g></g><text fill="#293845"><tspan x="-287" y="-177.5" font-family="DIN Next, sans-serif" font-size="18" font-style="normal" font-weight="normal">physical schema</tspan></text></g></g></g></g></g></g></g></g><g><g><rect x="-626" y="-384" width="230" height="240" rx="3" ry="3" fill="#ffffff"></rect><rect y="-384" stroke-dasharray="5, 8" rx="3" stroke="#C3CFD9" fill="none" stroke-linejoin="round" width="230" stroke-dashoffset="7" stroke-linecap="round" stroke-width="2" x="-626" ry="3" height="240"></rect></g><g><g><g><g><rect x="-602" y="-332" width="95" height="40" fill="#ffffff" stroke-width="2" stroke="#C3CFD9"></rect><rect x="-602" y="-292" width="95" height="40" fill="#ffffff" stroke-width="2" stroke="#C3CFD9"></rect><rect x="-602" y="-252" width="95" height="40" fill="#ffffff" stroke-width="2" stroke="#C3CFD9"></rect><rect x="-602" y="-212" width="95" height="40" fill="#ffffff" stroke-width="2" stroke="#C3CFD9"></rect></g><g></g><g><text y="-324" font-style="normal" font-size="18" font-weight="bold" fill="#293845" width="69" xml:space="preserve" x="-589" font-family="DIN Next, sans-serif" height="24"><tspan x="-589" y="-306" text-anchor="start" style="white-space:pre;">Users﻿</tspan></text><text y="-284" font-style="normal" font-size="18" font-weight="normal" fill="#293845" width="69" xml:space="preserve" x="-589" font-family="DIN Next, sans-serif" height="24"><tspan x="-589" y="-266" text-anchor="start" style="white-space:pre;">id﻿</tspan></text><text y="-244" font-style="normal" font-size="18" font-weight="normal" fill="#293845" width="69" xml:space="preserve" x="-589" font-family="DIN Next, sans-serif" height="24"><tspan x="-589" y="-226" text-anchor="start" style="white-space:pre;">fullname﻿</tspan></text><text y="-204" font-style="normal" font-size="18" font-weight="normal" fill="#293845" width="69" xml:space="preserve" x="-589" font-family="DIN Next, sans-serif" height="24"><tspan x="-589" y="-186" text-anchor="start" style="white-space:pre;">age﻿</tspan></text></g></g></g><g><g class="content"><g><g><g><g><g></g><text fill="#293845"><tspan x="-617" y="-359.5" font-family="DIN Next, sans-serif" font-size="18" font-style="normal" font-weight="normal">old version view</tspan></text></g></g></g></g></g></g></g></g><g><g><path d="M-499,-264h50.5c8.28426,0 15,6.71574 15,15v150c0,8.28426 6.71574,15 15,15h130.5" fill="none" stroke="#F7C325" stroke-linecap="round" stroke-linejoin="round" stroke-width="4"></path><polygon points="-291.0921,-89.54095 -284,-84 -291.0921,-78.45905" fill="#F7C325" stroke="#F7C325" stroke-width="2" stroke-linecap="round" stroke-linejoin="round"></polygon></g></g><g><g><path d="M-499,-228h40c8.28426,0 15,6.71574 15,15v156c0,8.28426 6.71574,15 15,15h141" fill="none" stroke="#1AAE9F" stroke-linecap="round" stroke-linejoin="round" stroke-width="4"></path><polygon points="-291.0921,-47.54095 -284,-42 -291.0921,-36.45905" fill="#1AAE9F" stroke="#1AAE9F" stroke-width="2" stroke-linecap="round" stroke-linejoin="round"></polygon></g></g><g><g><path d="M-481,196h22c8.28426,0 15,-6.71574 15,-15v-208c0,-8.28426 6.71574,-15 15,-15h141" fill="none" stroke="#1AAE9F" stroke-linecap="round" stroke-linejoin="round" stroke-width="4"></path><polygon points="-291.0921,-47.54095 -284,-42 -291.0921,-36.45905" fill="#1AAE9F" stroke="#1AAE9F" stroke-width="2" stroke-linecap="round" stroke-linejoin="round"></polygon></g></g><g><g><path d="M-481,160h34c8.28426,0 15,-6.71574 15,-15v-214c0,-8.28426 6.71574,-15 15,-15h129" fill="none" stroke="#F7C325" stroke-linecap="round" stroke-linejoin="round" stroke-width="4"></path><polygon points="-291.0921,-89.54095 -284,-84 -291.0921,-78.45905" fill="#F7C325" stroke="#F7C325" stroke-width="2" stroke-linecap="round" stroke-linejoin="round"></polygon></g></g><g><g><path d="M-481,280h12.5c6.90355,0 12.5,-5.59645 12.5,-12.5v-216.5c0,-8.28426 6.71574,-15 15,-15h153" fill="none" stroke="#730FC3" stroke-linecap="round" stroke-linejoin="round" stroke-width="4"></path><polygon points="-291.0921,30.45905 -284,36 -291.0921,41.54095" fill="#730FC3" stroke="#730FC3" stroke-width="2" stroke-linecap="round" stroke-linejoin="round"></polygon></g></g><g><g><path d="M-499,-192h28c8.28426,0 15,6.71574 15,15v162c0,8.28426 6.71574,15 15,15h153" fill="none" stroke="#2C88D9" stroke-linecap="round" stroke-linejoin="round" stroke-width="4"></path><polygon points="-291.0921,-5.54095 -284,0 -291.0921,5.54095" fill="#2C88D9" stroke="#2C88D9" stroke-width="2" stroke-linecap="round" stroke-linejoin="round"></polygon></g></g><g><g><path d="M-481,232h46c8.28426,0 15,-6.71574 15,-15v-130c0,-8.28426 6.71574,-15 15,-15h117" fill="none" stroke="#D3455B" stroke-linecap="round" stroke-linejoin="round" stroke-width="4"></path><polygon points="-291.0921,66.45905 -284,72 -291.0921,77.54095" fill="#D3455B" stroke="#D3455B" stroke-width="2" stroke-linecap="round" stroke-linejoin="round"></polygon></g></g><g><g><rect x="-336" y="-384" width="396" height="156" rx="3" ry="3" fill="#e7e4df"></rect><rect y="-384" rx="3" stroke="#897A5F" fill="none" stroke-linejoin="round" width="396" stroke-linecap="round" stroke-width="2" x="-336" ry="3" height="156"></rect></g><g><g><g class="content"><g><g><g><g><g></g><text fill="#293845"><tspan x="-311" y="-335.5" font-family="DIN Next, sans-serif" font-size="18" font-style="normal" font-weight="normal">Migration operations:</tspan></text></g></g></g></g><g><g><rect x="-297.5" y="-320.5" width="4" height="4" rx="2" stroke="#293845" stroke-width="1" fill="#293845"></rect><g><g><g><g><g></g><text fill="#293845"><tspan x="-279" y="-311.5" font-family="DIN Next, sans-serif" font-size="18" font-style="normal" font-weight="normal">rename column </tspan></text></g><g><g></g><text fill="#293845"><tspan x="-153.26953125" y="-311.5" font-family="DIN Next, sans-serif" font-size="18" font-style="italic" font-weight="normal">fullname</tspan></text></g><g><g></g><text fill="#293845"><tspan x="-87.228515625" y="-311.5" font-family="DIN Next, sans-serif" font-size="18" font-style="normal" font-weight="normal"> → </tspan></text></g><g><g></g><text fill="#293845"><tspan x="-63.505859375" y="-311.5" font-family="DIN Next, sans-serif" font-size="18" font-style="italic" font-weight="normal">firstname</tspan></text></g></g></g></g></g><g><rect x="-297.5" y="-296" width="4" height="4" rx="2" stroke="#293845" stroke-width="1" fill="#293845"></rect><g><g><g><g><g></g><text fill="#293845"><tspan x="-279" y="-287" font-family="DIN Next, sans-serif" font-size="18" font-style="normal" font-weight="normal">create column </tspan></text></g><g><g></g><text fill="#293845"><tspan x="-164.0869140625" y="-287" font-family="DIN Next, sans-serif" font-size="18" font-style="italic" font-weight="normal">lastname</tspan></text></g></g></g></g></g><g><rect x="-297.5" y="-271.5" width="4" height="4" rx="2" stroke="#293845" stroke-width="1" fill="#293845"></rect><g><g><g><g><g></g><text fill="#293845"><tspan x="-279" y="-262.5" font-family="DIN Next, sans-serif" font-size="18" font-style="italic" font-weight="normal">apply a NOT NULL constraint to age column</tspan></text></g></g></g></g></g></g></g></g></g></g><g><g><rect x="300" y="36" width="230" height="276" rx="3" ry="3" fill="#ffffff"></rect><rect y="36" stroke-dasharray="5, 8" rx="3" stroke="#C3CFD9" fill="none" stroke-linejoin="round" width="230" stroke-dashoffset="7" stroke-linecap="round" stroke-width="2" x="300" ry="3" height="276"></rect></g><g><g><g class="content"><g><g><g><g><g></g><text fill="#293845"><tspan x="311" y="66.5" font-family="DIN Next, sans-serif" font-size="18" font-style="normal" font-weight="normal">new version view</tspan></text></g></g></g></g></g></g><g><g><g><rect x="333" y="96" width="104" height="40" fill="#ffffff" stroke-width="2" stroke="#C3CFD9"></rect><rect x="333" y="136" width="104" height="40" fill="#ffffff" stroke-width="2" stroke="#C3CFD9"></rect><rect x="333" y="176" width="104" height="40" fill="#ffffff" stroke-width="2" stroke="#C3CFD9"></rect><rect x="333" y="216" width="104" height="40" fill="#ffffff" stroke-width="2" stroke="#C3CFD9"></rect><rect x="333" y="256" width="104" height="40" fill="#ffffff" stroke-width="2" stroke="#C3CFD9"></rect></g><g></g><g><text y="104" font-style="normal" font-size="18" font-weight="bold" fill="#293845" width="78" xml:space="preserve" x="346" font-family="DIN Next, sans-serif" height="24"><tspan x="346" y="122" text-anchor="start" style="white-space:pre;">Users﻿</tspan></text><text y="144" font-style="normal" font-size="18" font-weight="normal" fill="#293845" width="78" xml:space="preserve" x="346" font-family="DIN Next, sans-serif" height="24"><tspan x="346" y="162" text-anchor="start" style="white-space:pre;">id﻿</tspan></text><text y="184" font-style="normal" font-size="18" font-weight="bold" fill="#293845" width="78" xml:space="preserve" x="346" font-family="DIN Next, sans-serif" height="24"><tspan x="346" y="202" text-anchor="start" style="white-space:pre;">firstname﻿</tspan></text><text y="224" font-style="normal" font-size="18" font-weight="bold" fill="#293845" width="78" xml:space="preserve" x="346" font-family="DIN Next, sans-serif" height="24"><tspan x="346" y="242" text-anchor="start" style="white-space:pre;">lastname</tspan></text><text y="264" font-style="normal" font-size="18" font-weight="normal" fill="#293845" width="78" xml:space="preserve" x="346" font-family="DIN Next, sans-serif" height="24"><tspan x="346" y="282" text-anchor="start" style="white-space:pre;">age﻿</tspan></text></g></g></g></g></g><g><g><rect x="614" y="-204" width="286" height="296" rx="3" ry="3" fill="#ffffff"></rect><rect y="-204" stroke-dasharray="5, 8" rx="3" stroke="#C3CFD9" fill="none" stroke-linejoin="round" width="286" stroke-dashoffset="7" stroke-linecap="round" stroke-width="2" x="614" ry="3" height="296"></rect></g><g><g><g><g><rect x="650" y="-64" width="102" height="40" fill="#ffffff" stroke-width="2" stroke="#C3CFD9"></rect><rect x="752" y="-24" width="62" height="40" fill="#ffffff" stroke-width="2" stroke="#C3CFD9"></rect><rect x="752" y="-64" width="62" height="40" fill="#ffffff" stroke-width="2" stroke="#C3CFD9"></rect><rect x="650" y="-104" width="102" height="40" fill="#ffffff" stroke-width="2" stroke="#C3CFD9"></rect><rect x="650" y="-24" width="102" height="40" fill="#ffffff" stroke-width="2" stroke="#C3CFD9"></rect><rect x="752" y="16" width="62" height="40" fill="#ffffff" stroke-width="2" stroke="#C3CFD9"></rect><rect x="752" y="-144" width="62" height="40" fill="#ffffff" stroke-width="2" stroke="#C3CFD9"></rect><rect x="650" y="-144" width="102" height="40" fill="#ffffff" stroke-width="2" stroke="#C3CFD9"></rect><rect x="752" y="-104" width="62" height="40" fill="#ffffff" stroke-width="2" stroke="#C3CFD9"></rect><rect x="650" y="16" width="102" height="40" fill="#ffffff" stroke-width="2" stroke="#C3CFD9"></rect></g><g></g><g><text y="-136" font-style="normal" font-size="18" font-weight="bold" fill="#293845" width="76" xml:space="preserve" x="663" font-family="DIN Next, sans-serif" height="24"><tspan x="663" y="-118" text-anchor="start" style="white-space:pre;">Users﻿</tspan></text><text y="-136" font-style="normal" font-size="18" font-weight="bold" fill="#293845" width="36" xml:space="preserve" x="765" font-family="DIN Next, sans-serif" height="24"><tspan x="765" y="-118" text-anchor="start" style="white-space:pre;"></tspan></text><text y="-96" font-style="normal" font-size="18" font-weight="normal" fill="#293845" width="76" xml:space="preserve" x="663" font-family="DIN Next, sans-serif" height="24"><tspan x="663" y="-78" text-anchor="start" style="white-space:pre;">id﻿</tspan></text><text y="-96" font-style="normal" font-size="18" font-weight="normal" fill="#293845" width="36" xml:space="preserve" x="765" font-family="DIN Next, sans-serif" height="24"><tspan x="765" y="-78" text-anchor="start" style="white-space:pre;">text﻿</tspan></text><text y="-56" font-style="normal" font-size="18" font-weight="normal" fill="#293845" width="76" xml:space="preserve" x="663" font-family="DIN Next, sans-serif" height="24"><tspan x="663" y="-38" text-anchor="start" style="white-space:pre;">firstname</tspan></text><text y="-56" font-style="normal" font-size="18" font-weight="normal" fill="#293845" width="36" xml:space="preserve" x="765" font-family="DIN Next, sans-serif" height="24"><tspan x="765" y="-38" text-anchor="start" style="white-space:pre;">text﻿</tspan></text><text y="-16" font-style="normal" font-size="18" font-weight="normal" fill="#293845" width="76" xml:space="preserve" x="663" font-family="DIN Next, sans-serif" height="24"><tspan x="663" y="2" text-anchor="start" style="white-space:pre;">age﻿</tspan></text><text y="-16" font-style="normal" font-size="18" font-weight="normal" fill="#293845" width="36" xml:space="preserve" x="765" font-family="DIN Next, sans-serif" height="24"><tspan x="765" y="2" text-anchor="start" style="white-space:pre;">float﻿</tspan></text><text y="24" font-style="normal" font-size="18" font-weight="normal" fill="#293845" width="76" xml:space="preserve" x="663" font-family="DIN Next, sans-serif" height="24"><tspan x="663" y="42" text-anchor="start" style="white-space:pre;">lastname</tspan></text><text y="24" font-style="normal" font-size="18" font-weight="normal" fill="#293845" width="36" xml:space="preserve" x="765" font-family="DIN Next, sans-serif" height="24"><tspan x="765" y="42" text-anchor="start" style="white-space:pre;">text﻿</tspan></text></g></g></g><g><g class="content"><g><g><g><g><g></g><text fill="#293845"><tspan x="639" y="-177.5" font-family="DIN Next, sans-serif" font-size="18" font-style="normal" font-weight="normal">physical schema</tspan></text></g></g></g></g></g></g></g></g><g><g><rect x="300" y="-384" width="230" height="240" rx="3" ry="3" fill="#ffffff"></rect><rect y="-384" stroke-dasharray="5, 8" rx="3" stroke="#C3CFD9" fill="none" stroke-linejoin="round" width="230" stroke-dashoffset="7" stroke-linecap="round" stroke-width="2" x="300" ry="3" height="240"></rect></g><g><g><g><g><rect x="324" y="-332" width="95" height="40" fill="#ffffff" stroke-width="2" stroke="#C3CFD9"></rect><rect x="324" y="-292" width="95" height="40" fill="#ffffff" stroke-width="2" stroke="#C3CFD9"></rect><rect x="324" y="-252" width="95" height="40" fill="#ffffff" stroke-width="2" stroke="#C3CFD9"></rect><rect x="324" y="-212" width="95" height="40" fill="#ffffff" stroke-width="2" stroke="#C3CFD9"></rect></g><g></g><g><text y="-324" font-style="normal" font-size="18" font-weight="bold" fill="#293845" width="69" xml:space="preserve" x="337" font-family="DIN Next, sans-serif" height="24"><tspan x="337" y="-306" text-anchor="start" style="white-space:pre;">Users﻿</tspan></text><text y="-284" font-style="normal" font-size="18" font-weight="normal" fill="#293845" width="69" xml:space="preserve" x="337" font-family="DIN Next, sans-serif" height="24"><tspan x="337" y="-266" text-anchor="start" style="white-space:pre;">id﻿</tspan></text><text y="-244" font-style="normal" font-size="18" font-weight="normal" fill="#293845" width="69" xml:space="preserve" x="337" font-family="DIN Next, sans-serif" height="24"><tspan x="337" y="-226" text-anchor="start" style="white-space:pre;">fullname﻿</tspan></text><text y="-204" font-style="normal" font-size="18" font-weight="normal" fill="#293845" width="69" xml:space="preserve" x="337" font-family="DIN Next, sans-serif" height="24"><tspan x="337" y="-186" text-anchor="start" style="white-space:pre;">age﻿</tspan></text></g></g></g><g><g class="content"><g><g><g><g><g></g><text fill="#293845"><tspan x="309" y="-359.5" font-family="DIN Next, sans-serif" font-size="18" font-style="normal" font-weight="normal">old version view</tspan></text></g></g></g></g></g></g></g></g><g><g><path d="M445,196h22c8.28426,0 15,-6.71574 15,-15v-210c0,-8.28426 6.71574,-15 15,-15h141" fill="none" stroke="#1AAE9F" stroke-linecap="round" stroke-linejoin="round" stroke-width="4"></path><polygon points="634.9079,-49.54095 642,-44 634.9079,-38.45905" fill="#1AAE9F" stroke="#1AAE9F" stroke-width="2" stroke-linecap="round" stroke-linejoin="round"></polygon></g></g><g><g><path d="M445,160h34c8.28426,0 15,-6.71574 15,-15v-214c0,-8.28426 6.71574,-15 15,-15h129" fill="none" stroke="#F7C325" stroke-linecap="round" stroke-linejoin="round" stroke-width="4"></path><polygon points="634.9079,-89.54095 642,-84 634.9079,-78.45905" fill="#F7C325" stroke="#F7C325" stroke-width="2" stroke-linecap="round" stroke-linejoin="round"></polygon></g></g><g><g><path d="M445,280h12.5c6.90355,0 12.5,-5.59645 12.5,-12.5v-252.5c0,-8.28426 6.71574,-15 15,-15h153" fill="none" stroke="#2C88D9" stroke-linecap="round" stroke-linejoin="round" stroke-width="4"></path><polygon points="634.9079,-5.54095 642,0 634.9079,5.54095" fill="#2C88D9" stroke="#2C88D9" stroke-width="2" stroke-linecap="round" stroke-linejoin="round"></polygon></g></g><g><g><path d="M445,232h46c8.28426,0 15,-6.71574 15,-15v-166c0,-8.28426 6.71574,-15 15,-15h117" fill="none" stroke="#D3455B" stroke-linecap="round" stroke-linejoin="round" stroke-width="4"></path><polygon points="634.9079,30.45905 642,36 634.9079,41.54095" fill="#D3455B" stroke="#D3455B" stroke-width="2" stroke-linecap="round" stroke-linejoin="round"></polygon></g></g><g><g class="content"><g><g><g><g><g></g><text fill="#293845"><tspan x="-544" y="-470.5" font-family="DIN Next, sans-serif" font-size="36" font-style="normal" font-weight="normal">ACTIVE SCHEMA CHANGE PERIOD</tspan></text></g></g></g></g></g></g><g><g class="content"><g><g><g><g><g></g><text fill="#293845"><tspan x="419" y="-470.5" font-family="DIN Next, sans-serif" font-size="36" font-style="normal" font-weight="normal">SCHEMA CHANGE COMPLETED</tspan></text></g></g></g></g></g></g><g><g><g transform="translate(228 -459) rotate(0 195 195)"><svg id="s04379c35-c67f-4179-8f14-02047172fed4" width="390" height="390" viewBox="0 0 64 64" data-icon-name="small-remove" data-icon-partition="g64-8" data-icon-color="#D3455B"><style>#s04379c35-c67f-4179-8f14-02047172fed4 *[fill=&#x27;#444444&#x27;], #s04379c35-c67f-4179-8f14-02047172fed4 *[fill=&#x27;#444&#x27;] {fill:#D3455B;}#s04379c35-c67f-4179-8f14-02047172fed4 *[stroke=&#x27;#444444&#x27;], #s04379c35-c67f-4179-8f14-02047172fed4 *[stroke=&#x27;#444&#x27;] {stroke:#D3455B;}</style><g><path d="M43.293,17.878l-11.293,11.293-11.293-11.293c-.391-.391-1.024-.391-1.414,0l-1.415,1.415c-.391,.391-.391,1.024,0,1.414l11.293,11.293-11.293,11.293c-.391,.391-.391,1.024,0,1.414l1.415,1.415c.391,.391,1.024,.391,1.414,0l11.293-11.293,11.293,11.293c.391,.391,1.024,.391,1.414,0l1.415-1.415c.391-.391,.391-1.024,0-1.414l-11.293-11.293,11.293-11.293c.391-.391,.391-1.024,0-1.414l-1.415-1.415c-.391-.391-1.024-.391-1.414,0Z" fill="#444"></path></g></svg></g></g></g><g><g><rect x="-626" y="876" width="230" height="276" rx="3" ry="3" fill="#ffffff"></rect><rect y="876" stroke-dasharray="5, 8" rx="3" stroke="#C3CFD9" fill="none" stroke-linejoin="round" width="230" stroke-dashoffset="7" stroke-linecap="round" stroke-width="2" x="-626" ry="3" height="276"></rect></g><g><g><g class="content"><g><g><g><g><g></g><text fill="#293845"><tspan x="-615" y="906.5" font-family="DIN Next, sans-serif" font-size="18" font-style="normal" font-weight="normal">new version view</tspan></text></g></g></g></g></g></g><g><g><g><rect x="-593" y="936" width="104" height="40" fill="#ffffff" stroke-width="2" stroke="#C3CFD9"></rect><rect x="-593" y="976" width="104" height="40" fill="#ffffff" stroke-width="2" stroke="#C3CFD9"></rect><rect x="-593" y="1016" width="104" height="40" fill="#ffffff" stroke-width="2" stroke="#C3CFD9"></rect><rect x="-593" y="1056" width="104" height="40" fill="#ffffff" stroke-width="2" stroke="#C3CFD9"></rect><rect x="-593" y="1096" width="104" height="40" fill="#ffffff" stroke-width="2" stroke="#C3CFD9"></rect></g><g></g><g><text y="944" font-style="normal" font-size="18" font-weight="bold" fill="#293845" width="78" xml:space="preserve" x="-580" font-family="DIN Next, sans-serif" height="24"><tspan x="-580" y="962" text-anchor="start" style="white-space:pre;">Users﻿</tspan></text><text y="984" font-style="normal" font-size="18" font-weight="normal" fill="#293845" width="78" xml:space="preserve" x="-580" font-family="DIN Next, sans-serif" height="24"><tspan x="-580" y="1002" text-anchor="start" style="white-space:pre;">id﻿</tspan></text><text y="1024" font-style="normal" font-size="18" font-weight="bold" fill="#293845" width="78" xml:space="preserve" x="-580" font-family="DIN Next, sans-serif" height="24"><tspan x="-580" y="1042" text-anchor="start" style="white-space:pre;">firstname﻿</tspan></text><text y="1064" font-style="normal" font-size="18" font-weight="bold" fill="#293845" width="78" xml:space="preserve" x="-580" font-family="DIN Next, sans-serif" height="24"><tspan x="-580" y="1082" text-anchor="start" style="white-space:pre;">lastname</tspan></text><text y="1104" font-style="normal" font-size="18" font-weight="normal" fill="#293845" width="78" xml:space="preserve" x="-580" font-family="DIN Next, sans-serif" height="24"><tspan x="-580" y="1122" text-anchor="start" style="white-space:pre;">age﻿</tspan></text></g></g></g></g></g><g><g><rect x="-312" y="636" width="324" height="296" rx="3" ry="3" fill="#ffffff"></rect><rect y="636" stroke-dasharray="5, 8" rx="3" stroke="#C3CFD9" fill="none" stroke-linejoin="round" width="324" stroke-dashoffset="7" stroke-linecap="round" stroke-width="2" x="-312" ry="3" height="296"></rect></g><g><g><g><g><rect x="-276" y="776" width="190" height="40" fill="#ffffff" stroke-width="2" stroke="#C3CFD9"></rect><rect x="-86" y="816" width="62" height="40" fill="#ffffff" stroke-width="2" stroke="#C3CFD9"></rect><rect x="-86" y="776" width="62" height="40" fill="#ffffff" stroke-width="2" stroke="#C3CFD9"></rect><rect x="-276" y="736" width="190" height="40" fill="#ffffff" stroke-width="2" stroke="#C3CFD9"></rect><rect x="-276" y="816" width="190" height="40" fill="#ffffff" stroke-width="2" stroke="#C3CFD9"></rect><rect x="-86" y="856" width="62" height="40" fill="#ffffff" stroke-width="2" stroke="#C3CFD9"></rect><rect x="-86" y="696" width="62" height="40" fill="#ffffff" stroke-width="2" stroke="#C3CFD9"></rect><rect x="-276" y="696" width="190" height="40" fill="#ffffff" stroke-width="2" stroke="#C3CFD9"></rect><rect x="-86" y="736" width="62" height="40" fill="#ffffff" stroke-width="2" stroke="#C3CFD9"></rect><rect x="-276" y="856" width="190" height="40" fill="#ffffff" stroke-width="2" stroke="#C3CFD9"></rect></g><g></g><g><text y="704" font-style="normal" font-size="18" font-weight="bold" fill="#293845" width="164" xml:space="preserve" x="-263" font-family="DIN Next, sans-serif" height="24"><tspan x="-263" y="722" text-anchor="start" style="white-space:pre;">Users﻿</tspan></text><text y="704" font-style="normal" font-size="18" font-weight="bold" fill="#293845" width="36" xml:space="preserve" x="-73" font-family="DIN Next, sans-serif" height="24"><tspan x="-73" y="722" text-anchor="start" style="white-space:pre;"></tspan></text><text y="744" font-style="normal" font-size="18" font-weight="normal" fill="#293845" width="164" xml:space="preserve" x="-263" font-family="DIN Next, sans-serif" height="24"><tspan x="-263" y="762" text-anchor="start" style="white-space:pre;">id﻿</tspan></text><text y="744" font-style="normal" font-size="18" font-weight="normal" fill="#293845" width="36" xml:space="preserve" x="-73" font-family="DIN Next, sans-serif" height="24"><tspan x="-73" y="762" text-anchor="start" style="white-space:pre;">text﻿</tspan></text><text y="784" font-style="normal" font-size="18" font-weight="normal" fill="#293845" width="164" xml:space="preserve" x="-263" font-family="DIN Next, sans-serif" height="24"><tspan x="-263" y="802" text-anchor="start" style="white-space:pre;">fullname﻿</tspan></text><text y="784" font-style="normal" font-size="18" font-weight="normal" fill="#293845" width="36" xml:space="preserve" x="-73" font-family="DIN Next, sans-serif" height="24"><tspan x="-73" y="802" text-anchor="start" style="white-space:pre;">text﻿</tspan></text><text y="824" font-style="normal" font-size="18" font-weight="normal" fill="#293845" width="164" xml:space="preserve" x="-263" font-family="DIN Next, sans-serif" height="24"><tspan x="-263" y="842" text-anchor="start" style="white-space:pre;">age﻿</tspan></text><text y="824" font-style="normal" font-size="18" font-weight="normal" fill="#293845" width="36" xml:space="preserve" x="-73" font-family="DIN Next, sans-serif" height="24"><tspan x="-73" y="842" text-anchor="start" style="white-space:pre;">float﻿</tspan></text><text y="864" font-style="normal" font-size="18" font-weight="normal" fill="#293845" width="164" xml:space="preserve" x="-263" font-family="DIN Next, sans-serif" height="24"><tspan x="-263" y="882" text-anchor="start" style="white-space:pre;">_xata_new_lastname﻿</tspan></text><text y="864" font-style="normal" font-size="18" font-weight="normal" fill="#293845" width="36" xml:space="preserve" x="-73" font-family="DIN Next, sans-serif" height="24"><tspan x="-73" y="882" text-anchor="start" style="white-space:pre;">text﻿</tspan></text></g></g></g><g><g class="content"><g><g><g><g><g></g><text fill="#293845"><tspan x="-287" y="662.5" font-family="DIN Next, sans-serif" font-size="18" font-style="normal" font-weight="normal">physical schema</tspan></text></g></g></g></g></g></g></g></g><g><g><rect x="-626" y="456" width="230" height="240" rx="3" ry="3" fill="#ffffff"></rect><rect y="456" stroke-dasharray="5, 8" rx="3" stroke="#C3CFD9" fill="none" stroke-linejoin="round" width="230" stroke-dashoffset="7" stroke-linecap="round" stroke-width="2" x="-626" ry="3" height="240"></rect></g><g><g><g><g><rect x="-602" y="508" width="95" height="40" fill="#ffffff" stroke-width="2" stroke="#C3CFD9"></rect><rect x="-602" y="548" width="95" height="40" fill="#ffffff" stroke-width="2" stroke="#C3CFD9"></rect><rect x="-602" y="588" width="95" height="40" fill="#ffffff" stroke-width="2" stroke="#C3CFD9"></rect><rect x="-602" y="628" width="95" height="40" fill="#ffffff" stroke-width="2" stroke="#C3CFD9"></rect></g><g></g><g><text y="516" font-style="normal" font-size="18" font-weight="bold" fill="#293845" width="69" xml:space="preserve" x="-589" font-family="DIN Next, sans-serif" height="24"><tspan x="-589" y="534" text-anchor="start" style="white-space:pre;">Users﻿</tspan></text><text y="556" font-style="normal" font-size="18" font-weight="normal" fill="#293845" width="69" xml:space="preserve" x="-589" font-family="DIN Next, sans-serif" height="24"><tspan x="-589" y="574" text-anchor="start" style="white-space:pre;">id﻿</tspan></text><text y="596" font-style="normal" font-size="18" font-weight="normal" fill="#293845" width="69" xml:space="preserve" x="-589" font-family="DIN Next, sans-serif" height="24"><tspan x="-589" y="614" text-anchor="start" style="white-space:pre;">fullname﻿</tspan></text><text y="636" font-style="normal" font-size="18" font-weight="normal" fill="#293845" width="69" xml:space="preserve" x="-589" font-family="DIN Next, sans-serif" height="24"><tspan x="-589" y="654" text-anchor="start" style="white-space:pre;">age﻿</tspan></text></g></g></g><g><g class="content"><g><g><g><g><g></g><text fill="#293845"><tspan x="-617" y="480.5" font-family="DIN Next, sans-serif" font-size="18" font-style="normal" font-weight="normal">old version view</tspan></text></g></g></g></g></g></g></g></g><g><g><path d="M-499,576h50.5c8.28426,0 15,6.71574 15,15v150c0,8.28426 6.71574,15 15,15h130.5" fill="none" stroke="#F7C325" stroke-linecap="round" stroke-linejoin="round" stroke-width="4"></path><polygon points="-291.0921,750.45905 -284,756 -291.0921,761.54095" fill="#F7C325" stroke="#F7C325" stroke-width="2" stroke-linecap="round" stroke-linejoin="round"></polygon></g></g><g><g><path d="M-499,612h40c8.28426,0 15,6.71574 15,15v154c0,8.28426 6.71574,15 15,15h141" fill="none" stroke="#1AAE9F" stroke-linecap="round" stroke-linejoin="round" stroke-width="4"></path><polygon points="-291.0921,790.45905 -284,796 -291.0921,801.54095" fill="#1AAE9F" stroke="#1AAE9F" stroke-width="2" stroke-linecap="round" stroke-linejoin="round"></polygon></g></g><g><g><path d="M-481,1036h22c8.28426,0 15,-6.71574 15,-15v-210c0,-8.28426 6.71574,-15 15,-15h141" fill="none" stroke="#1AAE9F" stroke-linecap="round" stroke-linejoin="round" stroke-width="4"></path><polygon points="-291.0921,790.45905 -284,796 -291.0921,801.54095" fill="#1AAE9F" stroke="#1AAE9F" stroke-width="2" stroke-linecap="round" stroke-linejoin="round"></polygon></g></g><g><g><path d="M-481,1000h34c8.28426,0 15,-6.71574 15,-15v-214c0,-8.28426 6.71574,-15 15,-15h129" fill="none" stroke="#F7C325" stroke-linecap="round" stroke-linejoin="round" stroke-width="4"></path><polygon points="-291.0921,750.45905 -284,756 -291.0921,761.54095" fill="#F7C325" stroke="#F7C325" stroke-width="2" stroke-linecap="round" stroke-linejoin="round"></polygon></g></g><g><g><path d="M-481,1120h12.5c6.90355,0 12.5,-5.59645 12.5,-12.5v-252.5c0,-8.28426 6.71574,-15 15,-15h153" fill="none" stroke="#2C88D9" stroke-linecap="round" stroke-linejoin="round" stroke-width="4"></path><polygon points="-291.0921,834.45905 -284,840 -291.0921,845.54095" fill="#2C88D9" stroke="#2C88D9" stroke-width="2" stroke-linecap="round" stroke-linejoin="round"></polygon></g></g><g><g><path d="M-499,648h28c8.28426,0 15,6.71574 15,15v162c0,8.28426 6.71574,15 15,15h153" fill="none" stroke="#2C88D9" stroke-linecap="round" stroke-linejoin="round" stroke-width="4"></path><polygon points="-291.0921,834.45905 -284,840 -291.0921,845.54095" fill="#2C88D9" stroke="#2C88D9" stroke-width="2" stroke-linecap="round" stroke-linejoin="round"></polygon></g></g><g><g><path d="M-481,1072h46c8.28426,0 15,-6.71574 15,-15v-166c0,-8.28426 6.71574,-15 15,-15h117" fill="none" stroke="#D3455B" stroke-linecap="round" stroke-linejoin="round" stroke-width="4"></path><polygon points="-291.0921,870.45905 -284,876 -291.0921,881.54095" fill="#D3455B" stroke="#D3455B" stroke-width="2" stroke-linecap="round" stroke-linejoin="round"></polygon></g></g><g><g><rect x="-336" y="456" width="372" height="132" rx="3" ry="3" fill="#e7e4df"></rect><rect y="456" rx="3" stroke="#897A5F" fill="none" stroke-linejoin="round" width="372" stroke-linecap="round" stroke-width="2" x="-336" ry="3" height="132"></rect></g><g><g><g class="content"><g><g><g><g><g></g><text fill="#293845"><tspan x="-311" y="504.5" font-family="DIN Next, sans-serif" font-size="18" font-style="normal" font-weight="normal">Migration operations:</tspan></text></g></g></g></g><g><g><rect x="-297.5" y="519.5" width="4" height="4" rx="2" stroke="#293845" stroke-width="1" fill="#293845"></rect><g><g><g><g><g></g><text fill="#293845"><tspan x="-279" y="528.5" font-family="DIN Next, sans-serif" font-size="18" font-style="normal" font-weight="normal">rename column </tspan></text></g><g><g></g><text fill="#293845"><tspan x="-153.26953125" y="528.5" font-family="DIN Next, sans-serif" font-size="18" font-style="italic" font-weight="normal">fullname</tspan></text></g><g><g></g><text fill="#293845"><tspan x="-87.228515625" y="528.5" font-family="DIN Next, sans-serif" font-size="18" font-style="normal" font-weight="normal"> → </tspan></text></g><g><g></g><text fill="#293845"><tspan x="-63.505859375" y="528.5" font-family="DIN Next, sans-serif" font-size="18" font-style="italic" font-weight="normal">firstname</tspan></text></g></g></g></g></g><g><rect x="-297.5" y="544" width="4" height="4" rx="2" stroke="#293845" stroke-width="1" fill="#293845"></rect><g><g><g><g><g></g><text fill="#293845"><tspan x="-279" y="553" font-family="DIN Next, sans-serif" font-size="18" font-style="normal" font-weight="normal">create column </tspan></text></g><g><g></g><text fill="#293845"><tspan x="-164.0869140625" y="553" font-family="DIN Next, sans-serif" font-size="18" font-style="italic" font-weight="normal">lastname</tspan></text></g></g></g></g></g></g></g></g></g></g></svg>