<svg xmlns="http://www.w3.org/2000/svg" xmlns:xlink="http://www.w3.org/1999/xlink" version="1.1" viewBox="-852 -60 1368 648" width="1368px" height="648px"><defs><style>@font-face{
    font-family:"DIN Next";
    font-weight: 400;
    src:url("https://whimsical.com/fonts/139e8e25-0eea-4cb4-a5d4-79048803e73d.eot?#iefix");
    src:url("https://whimsical.com/fonts/139e8e25-0eea-4cb4-a5d4-79048803e73d.eot?#iefix") format("eot"),url("https://whimsical.com/fonts/094b15e3-94bd-435b-a595-d40edfde661a.woff2") format("woff2"),url("https://whimsical.com/fonts/7e5fbe11-4858-4bd1-9ec6-a1d9f9d227aa.woff") format("woff"),url("https://whimsical.com/fonts/0f11eff9-9f05-46f5-9703-027c510065d7.ttf") format("truetype"),url("https://whimsical.com/fonts/48b61978-3f30-4274-823c-5cdcd1876918.svg#48b61978-3f30-4274-823c-5cdcd1876918") format("svg");
}
@font-face{
    font-family:"DIN Next";
    font-weight: 400;
    font-style: italic;
    src:url("https://whimsical.com/fonts/df24d5e8-5087-42fd-99b1-b16042d666c8.eot?#iefix");
    src:url("https://whimsical.com/fonts/df24d5e8-5087-42fd-99b1-b16042d666c8.eot?#iefix") format("eot"),url("https://whimsical.com/fonts/46251881-ffe9-4bfb-99c7-d6ce3bebaf3e.woff2") format("woff2"),url("https://whimsical.com/fonts/790ebbf2-62c5-4a32-946f-99d405f9243e.woff") format("woff"),url("https://whimsical.com/fonts/d28199e6-0f4a-42df-97f4-606701c6f75a.ttf") format("truetype"),url("https://whimsical.com/fonts/37a462c0-d86e-492c-b9ab-35e6bd417f6c.svg#37a462c0-d86e-492c-b9ab-35e6bd417f6c") format("svg");
}
@font-face{
    font-weight: 500;
    font-family:"DIN Next";
    src:url("https://whimsical.com/fonts/c5b058fc-55ce-4e06-a175-5c7d9a7e90f4.eot?#iefix");
    src:url("https://whimsical.com/fonts/c5b058fc-55ce-4e06-a175-5c7d9a7e90f4.eot?#iefix") format("eot"),url("https://whimsical.com/fonts/7b29ae40-30ff-4f99-a2b9-cde88669fa2f.woff2") format("woff2"),url("https://whimsical.com/fonts/bf73077c-e354-4562-a085-f4703eb1d653.woff") format("woff"),url("https://whimsical.com/fonts/0ffa6947-5317-4d07-b525-14d08a028821.ttf") format("truetype"),url("https://whimsical.com/fonts/9e423e45-5450-4991-a157-dbe6cf61eb4e.svg#9e423e45-5450-4991-a157-dbe6cf61eb4e") format("svg");
}
@font-face{
    font-family:"DIN Next";
    font-weight: 500;
    font-style: italic;
    src:url("https://whimsical.com/fonts/9897c008-fd65-48a4-afc7-36de2fea97b9.eot?#iefix");
    src:url("https://whimsical.com/fonts/9897c008-fd65-48a4-afc7-36de2fea97b9.eot?#iefix") format("eot"),url("https://whimsical.com/fonts/c7717981-647d-4b76-8817-33062e42d11f.woff2") format("woff2"),url("https://whimsical.com/fonts/b852cd4c-1255-40b1-a2be-73a9105b0155.woff") format("woff"),url("https://whimsical.com/fonts/821b00ad-e741-4e2d-af1a-85594367c8a2.ttf") format("truetype"),url("https://whimsical.com/fonts/d3e3b689-a6b0-45f2-b279-f5e194f87409.svg#d3e3b689-a6b0-45f2-b279-f5e194f87409") format("svg");
}
@font-face{
    font-weight: 700;
    font-family:"DIN Next";
    src:url("https://whimsical.com/fonts/81cd3b08-fd39-4ae3-8d05-9d24709eba84.eot?#iefix");
    src:url("https://whimsical.com/fonts/81cd3b08-fd39-4ae3-8d05-9d24709eba84.eot?#iefix") format("eot"),url("https://whimsical.com/fonts/31704504-4671-47a6-a61e-397f07410d91.woff2") format("woff2"),url("https://whimsical.com/fonts/b8a280da-481f-44a0-8d9c-1bc64bd7227c.woff") format("woff"),url("https://whimsical.com/fonts/276d122a-0fab-447b-9fc0-5d7fb0eafce2.ttf") format("truetype"),url("https://whimsical.com/fonts/8fb8273a-8213-4928-808b-b5bfaf3fd7e9.svg#8fb8273a-8213-4928-808b-b5bfaf3fd7e9") format("svg");
}
@font-face{
    font-family:"DIN Next";
    font-weight: 700;
    font-style: italic;
    src:url("https://whimsical.com/fonts/00cc6df3-ed32-4004-8dd8-1c576600a408.eot?#iefix");
    src:url("https://whimsical.com/fonts/00cc6df3-ed32-4004-8dd8-1c576600a408.eot?#iefix") format("eot"),url("https://whimsical.com/fonts/4132c4c8-680c-4d6d-9251-a2da38503bbd.woff2") format("woff2"),url("https://whimsical.com/fonts/366401fe-6df4-47be-8f55-8a411cff0dd2.woff") format("woff"),url("https://whimsical.com/fonts/dbe4f7ba-fc16-44a6-a577-571620e9edaf.ttf") format("truetype"),url("https://whimsical.com/fonts/f874edca-ee87-4ccf-8b1d-921fbc3c1c36.svg#f874edca-ee87-4ccf-8b1d-921fbc3c1c36") format("svg");
}

@font-face {
    font-family: 'PFDINMonoPro';
    src:url('https://whimsical.com/fonts/PFDINMonoPro-Regular.woff') format('woff');
    font-weight: 400;
}
@font-face {
    font-family: 'PFDINMonoPro';
    src:url('https://whimsical.com/fonts/PFDINMonoPro-Italic.woff') format('woff');
    font-style: italic;
    font-weight: 400;
}
@font-face {
    font-family: 'PFDINMonoPro';
    src:url('https://whimsical.com/fonts/PFDINMonoPro-Bold.woff') format('woff');
    font-weight: 700;
}
@font-face {
    font-family: 'PFDINMonoPro';
    src:url('https://whimsical.com/fonts/PFDINMonoPro-BoldItalic.woff') format('woff');
    font-style: italic;
    font-weight: 700;
}
* {-webkit-font-smoothing: auto; -moz-osx-font-smoothing: auto;}@media print { svg { width: 100%; height: 100%; } }</style><g><filter id="white-fill-shadow"><feDropShadow dx="0" dy="2" stdDeviation="6" flood-opacity="0.03" flood-color="#000000"></feDropShadow></filter><filter id="light-gray-fill-shadow"><feDropShadow dx="0" dy="2" stdDeviation="6" flood-opacity="0.09" flood-color="#000000"></feDropShadow></filter><filter id="yellow-fill-shadow"><feDropShadow dx="0" dy="2" stdDeviation="6" flood-opacity="0.12" flood-color="#000000"></feDropShadow></filter><filter id="fill-shadow"><feDropShadow dx="0" dy="2" stdDeviation="6" flood-opacity="0.16" flood-color="#000000"></feDropShadow></filter><filter id="frame-shadow"><feDropShadow dx="0" dy="3" stdDeviation="8" flood-opacity="0.06" flood-color="#000000"></feDropShadow></filter><filter id="button-shadow"><feDropShadow dx="0" dy="2" stdDeviation="6" flood-opacity="0.03" flood-color="#000000"></feDropShadow></filter><filter id="button-hover-shadow"><feDropShadow dx="0" dy="2" stdDeviation="6" flood-opacity="0.08" flood-color="#000000"></feDropShadow></filter><filter id="badge-shadow"><feDropShadow dx="0" dy="2" stdDeviation="6" flood-opacity="0.08" flood-color="#000000"></feDropShadow></filter></g></defs><g><g class="content"><g><g><g><g><g></g><text fill="#293845"><tspan x="-106.8779296875" y="-41.5" font-family="DIN Next, sans-serif" font-size="18" font-style="normal" font-weight="normal">2</tspan></text></g></g></g></g><g><g><g><g><g></g><text fill="#293845"><tspan x="-153.95751953125" y="-17.5" font-family="DIN Next, sans-serif" font-size="18" font-style="normal" font-weight="normal">New schema </tspan></text></g></g><g><g><g></g><text fill="#293845"><tspan x="-123.94140625" y="6.5" font-family="DIN Next, sans-serif" font-size="18" font-style="normal" font-weight="normal">ready</tspan></text></g></g></g></g></g></g><g><g><line stroke="#788896" fill="none" stroke-linejoin="round" y1="24" stroke-linecap="round" stroke-width="4" x1="-108" y2="108" x2="-108"></line><polygon points="-102.45905,104.9079 -108,112 -113.54095,104.9079" fill="#788896" stroke="#788896" stroke-width="2" stroke-linecap="round" stroke-linejoin="round"></polygon></g></g><g><g class="content"><g><g><g><g><g></g><text fill="#293845"><tspan x="111.1220703125" y="-41.5" font-family="DIN Next, sans-serif" font-size="18" font-style="normal" font-weight="normal">3</tspan></text></g></g></g></g><g><g><g><g><g></g><text fill="#293845"><tspan x="51.40673828125" y="-17.5" font-family="DIN Next, sans-serif" font-size="18" font-style="normal" font-weight="normal">Schema Change </tspan></text></g></g><g><g><g></g><text fill="#293845"><tspan x="75.3740234375" y="6.5" font-family="DIN Next, sans-serif" font-size="18" font-style="normal" font-weight="normal">completed</tspan></text></g></g></g></g></g></g><g><g><line stroke="#788896" fill="none" stroke-linejoin="round" y1="24" stroke-linecap="round" stroke-width="4" x1="120" y2="108" x2="120"></line><polygon points="125.54095,104.9079 120,112 114.45905,104.9079" fill="#788896" stroke="#788896" stroke-width="2" stroke-linecap="round" stroke-linejoin="round"></polygon></g></g><g><g class="content"><g><g><g><g><g></g><text fill="#293845"><tspan x="-454.8779296875" y="-41.5" font-family="DIN Next, sans-serif" font-size="18" font-style="normal" font-weight="normal">1</tspan></text></g></g></g></g><g><g><g><g><g></g><text fill="#293845"><tspan x="-511.5869140625" y="-17.5" font-family="DIN Next, sans-serif" font-size="18" font-style="normal" font-weight="normal">Schema change</tspan></text></g></g></g></g><g><g><g><g><g></g><text fill="#293845"><tspan x="-472.86962890625" y="6.5" font-family="DIN Next, sans-serif" font-size="18" font-style="normal" font-weight="normal">starts</tspan></text></g></g></g></g></g></g><g><g><line stroke="#788896" fill="none" stroke-linejoin="round" y1="24" stroke-linecap="round" stroke-width="4" x1="-456" y2="108" x2="-456"></line><polygon points="-450.45905,104.9079 -456,112 -461.54095,104.9079" fill="#788896" stroke="#788896" stroke-width="2" stroke-linecap="round" stroke-linejoin="round"></polygon></g></g><g><rect x="-852" y="113" width="1368" height="163" rx="3" ry="3" fill="#FFFFFF" filter="url(#white-fill-shadow)"></rect><g><rect x="-852" y="113" width="1368" height="163" rx="3" ry="3" fill="#FFFFFF"></rect></g><g><g><g><g><path d="M-9.76,115.272c1.30477,1.07569 2.53244,3.96999 3.49256,5.43638c1.02167,1.56041 2.3819,3.04061 2.94657,4.81162c1.27438,3.99693 -6.0675,8.62604 -5.54663,12.14194c0.52085,3.51572 8.82293,7.45766 7.00088,11.20219c-1.50783,3.09876 -6.22697,7.8389 -6.67013,11.36493c-0.14245,1.13338 2.52121,4.06732 3.09094,5.21325c0.04466,0.08983 0.04462,0.40502 0.04462,0.07875" fill="none" stroke="#FFFFFF" stroke-linecap="round" stroke-linejoin="round" stroke-width="4"></path></g><g><path d="M3.24,115.272c1.30477,1.07569 2.53244,3.96999 3.49256,5.43638c1.02167,1.56041 2.3819,3.04061 2.94657,4.81162c1.27438,3.99693 -6.0675,8.62604 -5.54663,12.14194c0.52085,3.51572 8.82293,7.45766 7.00088,11.20219c-1.50783,3.09876 -6.22697,7.8389 -6.67013,11.36493c-0.14245,1.13338 2.52121,4.06732 3.09094,5.21325c0.04466,0.08983 0.04462,0.40502 0.04462,0.07875" fill="none" stroke="#FFFFFF" stroke-linecap="round" stroke-linejoin="round" stroke-width="4"></path></g></g></g><g><rect x="-108" y="216" width="612" height="48" rx="3" ry="3" fill="#FFFFFF" filter="url(#fill-shadow)"></rect><g><rect x="-108" y="216" width="612" height="48" rx="3" ry="3" fill="#730FC3"></rect><g class="content"><g><g><g><g><g></g><text fill="#FFFFFF"><tspan x="113.90380859375" y="246.5" font-family="DIN Next, sans-serif" font-size="18" font-style="normal" font-weight="normal">new version available</tspan></text></g></g></g></g></g></g></g><g><rect x="-623.9999999999999" y="120" width="743.9999999999999" height="48" rx="3" ry="3" fill="#FFFFFF" filter="url(#yellow-fill-shadow)"></rect><g><rect x="-623.9999999999999" y="120" width="743.9999999999999" height="48" rx="3" ry="3" fill="#F7C325"></rect><g class="content"><g><g><g><g><g></g><text fill="#293845"><tspan x="-331.86621093749994" y="150.5" font-family="DIN Next, sans-serif" font-size="18" font-style="normal" font-weight="normal">old version available</tspan></text></g></g></g></g></g></g></g><g><rect x="-456" y="168" width="575" height="48" rx="3" ry="3" fill="#FFFFFF" filter="url(#fill-shadow)"></rect><g><rect x="-456" y="168" width="575" height="48" rx="3" ry="3" fill="#788896"></rect><g class="content"><g><g><g><g><g></g><text fill="#FFFFFF"><tspan x="-257.89697265625" y="198.5" font-family="DIN Next, sans-serif" font-size="18" font-style="normal" font-weight="normal">active migration period</tspan></text></g></g></g></g></g></g></g><g><g><g><path d="M-9.76,163.272c1.30477,1.07569 2.53244,3.96999 3.49256,5.43638c1.02167,1.56041 2.3819,3.04061 2.94657,4.81162c1.27438,3.99693 -6.0675,8.62604 -5.54663,12.14194c0.52085,3.51572 8.82293,7.45766 7.00088,11.20219c-1.50783,3.09876 -6.22697,7.8389 -6.67013,11.36493c-0.14245,1.13338 2.52121,4.06732 3.09094,5.21325c0.04466,0.08983 0.04462,0.40502 0.04462,0.07875" fill="none" stroke="#FFFFFF" stroke-linecap="round" stroke-linejoin="round" stroke-width="4"></path></g><g><path d="M3.24,163.272c1.30477,1.07569 2.53244,3.96999 3.49256,5.43638c1.02167,1.56041 2.3819,3.04061 2.94657,4.81162c1.27438,3.99693 -6.0675,8.62604 -5.54663,12.14194c0.52085,3.51572 8.82293,7.45766 7.00088,11.20219c-1.50783,3.09876 -6.22697,7.8389 -6.67013,11.36493c-0.14245,1.13338 2.52121,4.06732 3.09094,5.21325c0.04466,0.08983 0.04462,0.40502 0.04462,0.07875" fill="none" stroke="#FFFFFF" stroke-linecap="round" stroke-linejoin="round" stroke-width="4"></path></g></g></g><g><g><g><path d="M-9.76,211.272c1.30477,1.07569 2.53244,3.96999 3.49256,5.43638c1.02167,1.56041 2.3819,3.04061 2.94657,4.81162c1.27438,3.99693 -6.0675,8.62604 -5.54663,12.14194c0.52085,3.51572 8.82293,7.45766 7.00088,11.20219c-1.50783,3.09876 -6.22697,7.8389 -6.67013,11.36493c-0.14245,1.13338 2.52121,4.06732 3.09094,5.21325c0.04466,0.08983 0.04462,0.40502 0.04462,0.07875" fill="none" stroke="#FFFFFF" stroke-linecap="round" stroke-linejoin="round" stroke-width="4"></path></g><g><path d="M3.24,211.272c1.30477,1.07569 2.53244,3.96999 3.49256,5.43638c1.02167,1.56041 2.3819,3.04061 2.94657,4.81162c1.27438,3.99693 -6.0675,8.62604 -5.54663,12.14194c0.52085,3.51572 8.82293,7.45766 7.00088,11.20219c-1.50783,3.09876 -6.22697,7.8389 -6.67013,11.36493c-0.14245,1.13338 2.52121,4.06732 3.09094,5.21325c0.04466,0.08983 0.04462,0.40502 0.04462,0.07875" fill="none" stroke="#FFFFFF" stroke-linecap="round" stroke-linejoin="round" stroke-width="4"></path></g></g></g><g><g class="content"><g><g><g><g><g></g><text fill="#293845"><tspan x="-828" y="204.5" font-family="DIN Next, sans-serif" font-size="36" font-style="normal" font-weight="normal">Database</tspan></text></g></g></g></g></g></g><g><g><g><path d="M-9.76,115.272c1.30477,1.07569 2.53244,3.96999 3.49256,5.43638c1.02167,1.56041 2.3819,3.04061 2.94657,4.81162c1.27438,3.99693 -6.0675,8.62604 -5.54663,12.14194c0.52085,3.51572 8.82293,7.45766 7.00088,11.20219c-1.50783,3.09876 -6.22697,7.8389 -6.67013,11.36493c-0.14245,1.13338 2.52121,4.06732 3.09094,5.21325c0.04466,0.08983 0.04462,0.40502 0.04462,0.07875" fill="none" stroke="#FFFFFF" stroke-linecap="round" stroke-linejoin="round" stroke-width="4"></path></g><g><path d="M3.24,115.272c1.30477,1.07569 2.53244,3.96999 3.49256,5.43638c1.02167,1.56041 2.3819,3.04061 2.94657,4.81162c1.27438,3.99693 -6.0675,8.62604 -5.54663,12.14194c0.52085,3.51572 8.82293,7.45766 7.00088,11.20219c-1.50783,3.09876 -6.22697,7.8389 -6.67013,11.36493c-0.14245,1.13338 2.52121,4.06732 3.09094,5.21325c0.04466,0.08983 0.04462,0.40502 0.04462,0.07875" fill="none" stroke="#FFFFFF" stroke-linecap="round" stroke-linejoin="round" stroke-width="4"></path></g></g></g></g></g><g><rect x="-852" y="312" width="1368" height="163" rx="3" ry="3" fill="#FFFFFF" filter="url(#white-fill-shadow)"></rect><g><rect x="-852" y="312" width="1368" height="163" rx="3" ry="3" fill="#FFFFFF"></rect></g><g><g><rect x="-12" y="369" width="84" height="48" rx="3" ry="3" fill="#FFFFFF" filter="url(#fill-shadow)"></rect><g><rect x="-12" y="369" width="84" height="48" rx="3" ry="3" fill="#788896"></rect><g class="content"><g><g><g><g><g></g><text fill="#FFFFFF"><tspan x="2.3603515625" y="399.5" font-family="DIN Next, sans-serif" font-size="18" font-style="normal" font-weight="normal">roll out</tspan></text></g></g></g></g></g></g></g><g><g><g><path d="M-9.76,314.272c1.30477,1.07569 2.53244,3.96999 3.49256,5.43638c1.02167,1.56041 2.3819,3.04061 2.94657,4.81162c1.27438,3.99693 -6.0675,8.62604 -5.54663,12.14194c0.52085,3.51572 8.82293,7.45766 7.00088,11.20219c-1.50783,3.09876 -6.22697,7.8389 -6.67013,11.36493c-0.14245,1.13338 2.52121,4.06732 3.09094,5.21325c0.04466,0.08983 0.04462,0.40502 0.04462,0.07875" fill="none" stroke="#FFFFFF" stroke-linecap="round" stroke-linejoin="round" stroke-width="4"></path></g><g><path d="M3.24,314.272c1.30477,1.07569 2.53244,3.96999 3.49256,5.43638c1.02167,1.56041 2.3819,3.04061 2.94657,4.81162c1.27438,3.99693 -6.0675,8.62604 -5.54663,12.14194c0.52085,3.51572 8.82293,7.45766 7.00088,11.20219c-1.50783,3.09876 -6.22697,7.8389 -6.67013,11.36493c-0.14245,1.13338 2.52121,4.06732 3.09094,5.21325c0.04466,0.08983 0.04462,0.40502 0.04462,0.07875" fill="none" stroke="#FFFFFF" stroke-linecap="round" stroke-linejoin="round" stroke-width="4"></path></g></g></g><g><rect x="-12" y="417" width="516" height="48" rx="3" ry="3" fill="#FFFFFF" filter="url(#fill-shadow)"></rect><g><rect x="-12" y="417" width="516" height="48" rx="3" ry="3" fill="#6558F5"></rect><g class="content"><g><g><g><g><g></g><text fill="#FFFFFF"><tspan x="173.88232421875" y="447.5" font-family="DIN Next, sans-serif" font-size="18" font-style="normal" font-weight="normal">using new schema</tspan></text></g></g></g></g></g></g></g><g><rect x="-623.9999999999999" y="319" width="695.9999999999999" height="48" rx="3" ry="3" fill="#FFFFFF" filter="url(#fill-shadow)"></rect><g><rect x="-623.9999999999999" y="319" width="695.9999999999999" height="48" rx="3" ry="3" fill="#1AAE9F"></rect><g class="content"><g><g><g><g><g></g><text fill="#FFFFFF"><tspan x="-343.88769531249994" y="349.5" font-family="DIN Next, sans-serif" font-size="18" font-style="normal" font-weight="normal">using old schema</tspan></text></g></g></g></g></g></g></g><g><g class="content"><g><g><g><g><g></g><text fill="#293845"><tspan x="-828" y="408.5" font-family="DIN Next, sans-serif" font-size="36" font-style="normal" font-weight="normal">App/clients</tspan></text></g></g></g></g></g></g></g></g><g><g class="content"><g><g><g><g><g></g><text fill="#293845"><tspan x="-62.1845703125" y="558.5" font-family="DIN Next, sans-serif" font-size="18" font-style="normal" font-weight="normal">New version </tspan></text></g></g><g><g><g></g><text fill="#293845"><tspan x="-37.685546875" y="582.5" font-family="DIN Next, sans-serif" font-size="18" font-style="normal" font-weight="normal">deploy</tspan></text></g></g></g></g></g></g><g><g><line stroke="#788896" fill="none" stroke-linejoin="round" y1="492" stroke-linecap="round" stroke-width="4" x1="-12" y2="540" x2="-12"></line><polygon points="-17.54095,495.0921 -12,488 -6.45905,495.0921" fill="#788896" stroke="#788896" stroke-width="2" stroke-linecap="round" stroke-linejoin="round"></polygon></g></g></svg>